<?xml version="1.0" encoding="UTF-8" standalone="no"?>
<!DOCTYPE svg PUBLIC "-//W3C//DTD SVG 1.1//EN" "http://www.w3.org/Graphics/SVG/1.1/DTD/svg11.dtd">
<svg width="240.00" height="240.00" viewBox="0.00 0.00 1000.00 1000.00" xmlns="http://www.w3.org/2000/svg" xmlns:xlink="http://www.w3.org/1999/xlink">
<g stroke-linecap="round" id="Layer_3">
<path d="M445.06,266.18 C443.67,266.21 437.34,266.41 434.47,267.64 C430.06,269.59 425.68,272.23 423.06,274.35 C418.25,278.32 407.93,292.24 405.94,296.46 C403.49,301.76 400.31,312.72 399.89,318.10 C399.66,321.45 400.10,327.65 401.03,331.13 C402.05,334.81 405.52,341.39 407.84,343.92 C410.12,346.34 416.49,350.49 420.01,351.97 C423.53,353.41 431.07,355.21 435.28,355.66 C439.40,356.08 447.13,355.93 451.12,355.35 C455.30,354.71 462.17,352.59 465.36,350.92 C468.57,349.19 473.39,344.95 475.34,342.12 C477.19,339.36 479.62,332.94 480.22,329.30 C481.12,323.54 479.90,311.10 478.19,305.41 C476.55,300.05 471.51,289.69 468.25,285.07 C466.45,282.56 461.44,277.05 458.43,274.65 C455.47,272.34 449.29,268.94 446.09,268.04 C442.88,267.17 436.39,266.87 433.26,267.52 C430.11,268.21 423.83,271.25 421.02,273.44 C416.48,277.02 409.54,286.22 406.89,291.60 C404.24,297.02 401.30,308.33 401.18,313.84 C401.15,316.11 401.81,322.22 402.91,325.62 C404.11,329.20 408.43,335.86 411.23,338.46 C413.79,340.81 419.12,344.27 421.08,345.26 C425.52,347.46 437.30,350.84 443.00,351.75 C448.77,352.64 460.40,352.42 466.06,350.99 C469.64,350.06 476.21,346.90 478.90,344.80 C481.64,342.62 485.77,337.12 487.18,333.74 C488.59,330.25 489.74,323.04 489.75,319.94 C489.71,314.25 487.37,303.17 485.02,297.68 C482.61,292.13 475.98,282.69 471.79,278.84 C469.71,276.95 464.63,273.31 462.84,272.36 C459.08,270.43 451.55,268.29 447.90,268.13 C444.18,268.02 436.75,269.66 432.76,271.43 C428.13,273.54 419.02,281.11 415.46,285.77 C412.06,290.27 407.10,301.41 406.02,306.79 C405.38,310.06 404.91,316.42 405.21,319.98 C405.57,323.85 407.59,330.67 409.32,333.82 C410.99,336.79 415.52,342.06 418.36,344.49 C421.02,346.73 426.80,350.41 429.96,351.89 C433.15,353.36 439.32,355.26 442.65,355.80 C445.94,356.31 452.32,356.41 455.56,356.00 C458.81,355.57 464.79,353.85 467.93,352.46 C471.11,351.03 476.53,347.67 479.08,345.50 C481.65,343.29 486.05,338.13 487.75,335.29 C489.51,332.29 491.84,325.85 492.43,322.30 C493.01,318.62 492.81,311.55 491.94,307.41 C490.91,302.64 486.09,292.12 482.96,287.54 C481.40,285.27 477.51,280.69 475.99,279.20 C472.90,276.23 466.94,271.96 463.61,270.33 C460.33,268.76 453.31,266.81 449.98,266.54 C446.81,266.32 439.53,267.14 436.51,268.09 C433.37,269.11 426.98,272.64 423.61,275.17 C419.21,278.52 412.30,286.90 409.48,291.98 C406.83,296.80 403.13,308.18 402.55,314.22 C402.20,318.10 403.00,325.65 404.05,329.15 C405.15,332.64 408.71,338.77 411.12,341.51 C413.42,344.08 419.18,348.70 422.34,350.66 C425.53,352.61 432.29,355.51 435.84,356.54 C439.40,357.54 446.44,358.55 450.07,358.52 C453.67,358.46 460.68,357.44 463.93,356.40 C467.26,355.32 473.60,351.91 476.52,349.71 C479.46,347.46 484.59,341.91 486.68,338.76 C488.88,335.36 491.47,328.58 492.05,325.63 C492.63,322.45 492.88,317.88 492.61,314.87 C492.35,312.15 490.90,306.55 489.95,304.19 C488.97,301.82 485.96,296.54 484.14,294.22 C480.48,289.59 471.28,282.17 465.57,279.37 C463.11,278.17 457.44,276.07 454.68,275.45 C451.38,274.73 444.66,274.14 441.19,274.52 C437.34,274.99 430.19,277.64 426.98,279.77 C423.88,281.89 418.55,287.36 416.16,290.92 C414.94,292.77 412.22,298.33 411.33,301.09 C410.33,304.29 409.41,309.20 409.13,312.92 C408.93,315.90 409.25,321.33 410.13,325.03 C411.53,330.71 416.65,344.28 420.22,349.57 C421.17,350.96 423.06,353.37 424.20,354.63 C424.74,355.22 427.20,357.71 427.93,358.45" fill="none" stroke="rgb(59, 47, 47)" stroke-width="10.10" stroke-opacity="1.00" stroke-linejoin="round"/>
<path d="M431.01,352.87 C431.01,352.87 431.01,351.65 431.01,351.65 C431.08,359.08 429.83,368.36 427.93,379.65 C422.70,408.78 421.95,413.63 421.69,416.69 C424.75,402.26 431.09,372.63 434.38,357.41 C435.03,354.33 435.82,349.90 435.04,348.76 C433.51,352.36 430.33,362.95 427.76,375.82 C422.16,407.50 415.92,442.97 415.26,446.76 C415.31,436.45 415.71,428.31 416.71,418.95 C417.35,413.61 420.29,395.03 421.30,390.09 C422.66,383.77 431.42,354.95 432.76,350.59 C432.76,350.59 407.77,442.69 407.77,442.69 C407.43,440.27 407.71,437.98 408.95,433.30 C411.91,422.50 424.60,389.51 430.72,374.83 C434.97,364.92 436.67,359.83 437.24,356.70 C435.55,358.57 434.39,360.80 432.49,365.76 C416.01,411.15 407.82,429.65 402.85,444.12 C401.93,446.79 401.69,447.94 401.71,449.31" fill="none" stroke="rgb(59, 47, 47)" stroke-width="10.10" stroke-opacity="1.00" stroke-linejoin="round"/>
<path d="M465.81,360.20 C465.81,360.20 465.20,357.87 465.20,357.87 C465.20,357.87 474.04,391.83 474.04,391.83 C474.04,391.83 463.70,355.07 463.70,355.07 C468.35,371.96 489.53,427.69 491.90,435.41 C490.10,432.68 484.18,419.93 480.84,412.31 C474.23,396.14 469.33,381.60 468.50,379.04 C468.50,379.04 492.31,443.71 492.31,443.71 C492.31,443.71 481.97,421.94 481.97,421.94 C484.21,424.89 486.39,428.14 488.43,432.03 C489.61,434.28 493.92,443.07 495.04,445.58 C495.26,446.09 495.47,446.59 495.69,447.09 C495.69,447.10 495.73,447.10 495.73,447.09" fill="none" stroke="rgb(59, 47, 47)" stroke-width="10.10" stroke-opacity="1.00" stroke-linejoin="round"/>
<path d="M418.80,450.55 C418.80,450.55 405.56,450.55 405.56,450.55 C405.56,450.55 494.06,449.33 494.06,449.33 C489.65,449.33 439.85,450.35 434.84,450.22 C423.88,449.92 420.03,448.44 419.70,448.07 C419.70,448.07 429.53,446.89 429.53,446.89" fill="none" stroke="rgb(59, 47, 47)" stroke-width="10.10" stroke-opacity="1.00" stroke-linejoin="round"/>
<path d="M422.25,285.75 C425.77,282.83 429.11,282.16 431.17,282.29 C432.34,283.78 432.62,284.94 431.88,286.59 C429.60,291.64 422.90,300.41 414.48,310.95 C411.74,314.36 407.20,320.01 405.40,322.25 C405.40,322.25 439.60,277.15 439.60,277.15 C437.20,279.12 428.46,291.22 424.22,298.07 C419.79,305.27 417.34,311.84 417.00,312.75 C417.00,312.75 418.00,313.15 418.00,313.15 C418.00,313.15 451.55,278.80 451.55,278.80 C447.59,284.04 437.11,298.15 433.10,304.05 C419.22,325.14 417.79,329.67 417.90,330.45 C417.90,330.45 453.30,287.30 453.30,287.30 C446.64,295.46 441.74,301.80 434.91,311.69 C430.29,318.74 420.92,333.23 420.15,335.00 C422.89,332.63 433.60,319.86 439.10,313.25 C447.17,303.70 453.40,297.22 455.25,296.50 C455.25,296.50 428.90,335.25 428.90,335.25 C446.73,314.88 451.39,310.48 453.10,309.75 C452.51,312.72 444.74,325.05 441.00,330.80 C438.47,334.65 436.72,337.63 436.05,339.25 C436.05,339.25 454.40,319.10 454.40,319.10 C454.40,319.10 435.80,344.95 435.80,344.95 C435.80,344.95 458.90,319.55 458.90,319.55 C459.32,319.84 459.19,320.38 458.08,322.27 C454.19,329.08 447.00,341.72 445.15,345.95 C447.52,345.09 448.86,344.31 450.55,342.61 C453.65,339.48 459.22,333.77 461.70,331.19 C464.99,327.80 469.45,324.24 472.30,322.80 C472.83,324.55 472.14,328.36 470.27,333.15 C465.50,345.11 465.29,346.38 465.25,348.65 C465.25,348.65 474.75,335.75 474.75,335.75 C474.75,335.75 466.10,345.80 466.10,345.80 C466.12,345.06 468.78,341.13 470.52,338.18 C471.90,335.81 472.59,333.96 472.45,332.88 C471.95,329.67 471.21,313.40 470.86,305.26 C470.64,300.64 469.93,294.75 469.05,292.35 C468.27,290.35 466.43,286.84 465.45,285.80 C464.55,284.88 461.56,283.44 460.30,283.20 C459.16,283.02 456.15,283.29 455.25,283.65 C454.33,284.05 452.69,285.71 452.25,286.65 C451.47,288.52 453.40,293.48 456.10,298.60 C461.38,308.29 465.46,313.63 466.40,314.60 C466.40,314.60 461.45,299.20 461.45,299.20 C461.45,299.20 466.55,319.10 466.55,319.10 C466.55,319.10 465.80,300.15 465.80,300.15 C466.73,303.88 467.44,307.91 467.67,312.44 C467.79,314.90 467.97,322.15 468.00,323.47" fill="none" stroke="rgb(59, 47, 47)" stroke-width="10.10" stroke-opacity="1.00" stroke-linejoin="round"/>
<path d="M447.75,288.00 C446.96,286.41 445.22,284.60 443.50,283.90 C441.77,283.21 435.90,284.43 432.30,286.28 C428.40,288.34 423.98,292.44 422.15,295.54 C420.62,298.26 419.26,305.04 419.47,308.60 C419.63,311.00 421.42,317.81 422.65,320.50 C423.92,323.23 428.10,329.47 430.28,331.86 C432.53,334.28 438.50,339.02 441.03,340.25 C444.19,341.74 452.89,343.68 455.60,343.35 C458.19,342.98 462.39,341.13 464.49,338.93 C467.35,335.85 470.42,331.46 471.70,328.19 C472.84,325.19 474.41,317.53 474.69,313.66 C474.87,310.91 474.87,301.71 474.17,298.60 C473.70,296.57 470.20,289.49 468.03,287.26 C465.69,284.93 459.92,281.78 456.45,281.06 C452.81,280.36 445.62,280.62 442.77,281.33 C439.70,282.13 435.13,283.90 432.44,285.33 C429.95,286.67 425.25,290.27 423.40,292.10 C421.58,293.92 418.02,298.56 416.73,300.96 C415.32,303.61 413.78,307.94 413.12,311.08 C412.54,314.01 412.50,321.45 413.39,325.35 C414.30,329.14 417.68,335.72 420.23,338.45 C422.78,341.10 429.21,345.15 432.82,346.42 C436.42,347.65 444.18,348.55 448.15,348.25 C452.08,347.93 459.42,346.00 462.80,344.27 C466.21,342.49 471.74,337.93 473.83,334.98 C475.88,332.01 478.68,325.13 479.22,321.45 C479.72,317.73 479.06,309.90 477.89,306.22 C476.75,302.72 473.75,297.13 472.45,295.30 C471.02,293.31 466.94,288.89 464.81,287.11 C462.41,285.13 458.27,282.48 455.50,281.15 C453.02,279.97 447.36,278.21 445.25,277.85 C440.94,277.14 433.85,277.40 430.15,278.35 C426.44,279.36 420.70,282.57 418.10,285.10 C415.68,287.51 411.80,293.59 410.45,297.05 C409.14,300.50 407.89,308.01 407.95,311.90 C408.04,315.70 409.60,323.23 411.00,326.75 C412.34,330.02 416.39,336.65 418.60,339.15 C420.92,341.73 426.70,346.07 429.90,347.70 C433.02,349.25 439.74,351.23 443.10,351.60 C446.41,351.93 453.04,351.34 456.30,350.45 C459.76,349.46 465.43,346.45 468.25,344.05 C470.99,341.67 475.43,336.07 477.30,332.65 C479.21,329.07 481.47,322.32 482.25,317.80 C482.61,315.62 483.06,309.65 482.96,306.93 C482.82,303.55 481.76,297.07 480.55,293.80 C479.14,290.12 474.85,284.05 471.85,281.45 C468.91,278.96 462.23,275.40 458.10,274.15 C456.07,273.55 450.16,272.67 447.43,272.66 C444.35,272.66 439.41,273.27 436.38,274.02 C433.66,274.72 428.22,277.01 426.15,278.25 C424.05,279.53 419.73,283.13 418.01,285.18 C416.14,287.44 413.60,291.62 412.36,294.47 C410.23,299.46 408.62,310.89 409.13,316.71 C409.67,322.45 412.90,333.49 415.50,337.90 C417.71,341.58 422.23,346.53 425.40,348.85 C428.60,351.15 434.86,353.99 438.60,354.80 C442.20,355.54 449.78,355.62 453.50,354.95 C457.31,354.22 464.56,351.30 467.70,349.20 C470.71,347.14 474.91,342.60 476.68,339.88 C478.12,337.61 480.40,332.21 481.05,329.75 C482.40,324.50 482.43,312.42 481.10,306.55 C480.42,303.63 478.24,297.60 477.10,295.30 C475.91,292.94 472.55,287.98 470.69,285.97 C468.44,283.60 463.38,279.63 460.20,278.05 C456.81,276.41 449.53,274.68 445.45,274.60 C443.44,274.58 437.50,275.42 434.84,276.18 C429.46,277.76 419.30,283.52 414.75,287.60 C410.21,291.72 403.42,301.13 401.30,306.39 C400.17,309.25 398.81,316.59 399.02,320.50 C399.27,324.24 401.52,331.18 403.46,334.34 C405.45,337.50 410.46,342.65 412.86,344.43 C417.28,347.66 427.56,352.40 432.85,353.70 C438.52,355.07 449.93,355.25 455.51,354.18 C458.31,353.62 464.18,351.66 466.50,350.55 C468.83,349.42 474.14,346.01 476.44,344.09 C479.03,341.89 482.71,337.94 484.72,335.19 C488.30,330.22 492.85,318.66 493.85,312.21 C494.38,308.65 494.61,303.18 494.36,299.70 C494.13,296.61 492.81,290.35 491.95,287.90 C491.04,285.36 488.23,280.04 486.48,277.79 C484.55,275.35 480.78,271.79 478.22,269.98 C475.90,268.37 470.55,265.85 468.05,265.05 C465.55,264.27 459.52,263.21 456.54,263.14 C453.29,263.09 447.72,263.63 444.44,264.32 C438.85,265.52 426.59,271.24 421.79,274.81 C416.84,278.53 408.77,287.76 406.20,292.60 C405.15,294.61 402.94,300.48 402.33,304.00 C401.74,307.61 402.11,315.20 403.28,319.08 C404.73,323.69 407.46,328.55 409.86,331.31 C412.96,334.83 416.83,338.81 419.40,340.85 C421.96,342.85 427.78,346.25 430.99,347.65 C434.11,348.98 440.39,350.80 444.30,351.58 C449.09,352.47 454.32,352.92 457.65,352.30 C462.41,351.35 468.09,349.17 471.15,346.85 C473.95,344.67 478.51,338.78 480.35,334.95 C481.26,333.01 483.08,327.07 483.51,324.27 C483.98,321.14 484.11,316.00 483.81,312.72 C483.52,309.82 482.13,303.91 481.25,301.60 C480.30,299.16 477.37,294.02 475.61,291.94 C473.66,289.69 469.84,286.54 467.22,285.01 C464.84,283.65 459.41,281.81 456.95,281.40 C454.47,281.00 448.60,280.99 445.80,281.50 C442.72,282.09 437.85,283.80 434.95,285.32 C432.40,286.67 427.49,290.36 425.75,292.15 C423.99,293.98 420.61,298.86 419.47,301.36 C418.22,304.15 417.06,308.59 416.73,311.84 C416.46,314.85 417.36,322.32 418.88,325.93 C420.40,329.44 425.33,335.05 428.53,337.08 C431.74,339.04 439.39,341.10 443.15,341.05 C446.82,340.97 452.78,339.26 454.85,338.30 C457.09,337.24 461.90,333.94 463.92,331.95 C466.15,329.72 468.99,325.86 470.52,322.96 C471.93,320.21 473.75,312.96 473.50,309.22 C473.33,307.22 472.54,304.17 471.74,302.47 C470.89,300.75 469.09,298.47 467.66,297.32 C466.23,296.22 463.56,294.92 461.74,294.44 C458.27,293.61 451.07,294.57 448.18,295.77 C445.12,297.09 440.81,299.74 438.20,301.89 C435.89,303.83 431.64,308.67 430.25,310.85 C428.99,312.86 426.46,318.87 425.97,322.25 C425.71,324.22 425.91,327.36 426.39,329.17 C426.90,330.91 428.22,333.46 429.31,334.77 C430.45,336.08 432.67,337.70 434.33,338.43 C437.32,339.68 444.39,339.89 448.05,338.84 C451.86,337.68 458.06,333.48 460.19,331.18 C462.41,328.72 464.87,324.98 466.23,322.00 C467.47,319.19 468.80,311.97 468.31,308.22 C467.79,304.63 464.52,298.38 462.09,296.14 C460.74,294.93 458.31,293.47 456.74,292.93 C455.09,292.41 452.39,292.22 450.60,292.52 C447.44,293.11 441.18,296.89 438.50,299.73 C435.88,302.59 432.23,309.44 431.42,313.00 C430.67,316.55 431.40,323.37 432.68,326.08 C433.41,327.54 434.92,329.45 436.05,330.35 C437.21,331.22 439.29,332.05 440.71,332.22 C443.25,332.46 448.60,330.49 451.15,328.41 C453.66,326.28 457.73,320.61 458.95,317.34 C460.13,314.05 460.68,307.30 460.08,304.14 C459.45,301.07 456.77,295.84 454.85,294.02 C452.90,292.25 448.51,290.64 446.10,290.88 C443.73,291.16 439.33,293.44 437.50,295.34 C435.73,297.25 433.44,301.90 433.04,304.30 C432.67,306.71 433.70,311.36 434.91,313.32 C436.14,315.24 439.76,317.78 441.85,318.21 C443.99,318.60 448.44,317.43 450.47,315.99 C452.49,314.50 455.69,310.07 456.57,307.54 C457.40,305.03 457.61,299.81 456.92,297.39 C456.19,294.96 453.33,290.86 451.38,289.57 C449.36,288.29 444.89,287.84 442.40,288.69 C439.61,289.72 436.47,292.09 434.00,295.22 C430.95,299.19 428.76,304.11 428.00,308.71 C427.72,310.71 427.90,313.38 428.50,314.90 C429.01,316.10 431.07,317.42 432.05,317.20 C433.86,316.71 438.54,310.91 439.45,309.25 C440.77,306.79 442.48,300.64 442.08,296.89 C441.82,294.93 440.58,293.28 439.15,293.05 C436.68,292.76 431.42,296.65 429.90,298.60 C428.61,300.32 426.61,305.03 426.55,306.45 C426.53,308.60 427.59,311.65 429.00,312.60 C431.31,314.09 437.05,313.93 438.97,313.35 C441.24,312.64 445.33,310.21 447.36,308.41 C448.35,307.49 450.29,304.99 450.95,303.65 C451.71,302.09 451.47,300.55 450.70,299.50 C449.13,299.34 447.54,299.75 445.59,301.09 C442.10,303.49 437.83,308.40 436.15,311.05 C434.85,313.12 432.48,317.89 432.00,318.85 C433.88,317.61 438.28,312.00 440.75,309.15 C442.36,307.30 443.97,306.45 446.65,305.80 C447.22,308.42 446.88,313.45 445.40,318.10 C444.88,319.70 443.76,322.56 443.00,324.40 C445.43,317.62 451.28,301.52 453.28,296.47 C454.22,293.95 454.38,290.17 454.30,288.75 C451.72,289.16 450.15,289.91 448.80,291.69 C447.46,293.47 445.71,296.49 445.10,298.15 C444.42,300.12 444.42,302.93 445.11,304.37 C445.83,305.72 447.98,307.22 449.58,307.50 C451.22,307.73 454.14,307.04 455.93,306.02 C457.57,305.04 460.12,302.71 461.23,301.20 C462.29,299.71 463.37,297.25 463.80,295.51 C464.17,293.92 464.04,292.70 463.55,291.40 C460.02,299.99 454.23,315.69 454.21,315.74 C453.27,317.82 452.45,318.82 451.45,319.40 C452.26,314.15 451.76,312.38 450.60,311.50 C448.22,312.49 446.54,313.53 444.34,315.49 C442.15,317.44 441.29,318.43 440.90,319.30" fill="none" stroke="rgb(0, 0, 0)" stroke-width="10.10" stroke-opacity="1.00" stroke-linejoin="round"/>
<path d="M430.50,360.00 C430.50,360.00 430.50,353.04 430.50,353.04 C429.51,355.44 428.38,362.51 427.74,365.06 C426.21,371.03 419.50,387.44 416.20,395.30 C413.15,402.21 407.14,415.74 404.19,422.36 C399.90,432.41 396.40,442.41 395.53,448.37 C395.47,448.83 395.10,452.96 395.30,453.45 C395.79,454.51 397.16,454.78 399.95,454.50 C401.92,454.28 418.34,454.83 427.06,454.26 C434.68,453.64 450.87,452.32 458.44,451.82 C469.06,451.28 482.88,451.93 486.38,452.79 C487.51,453.10 490.59,453.85 491.30,453.80 C491.58,453.78 491.82,453.59 492.00,453.25" fill="none" stroke="rgb(0, 0, 0)" stroke-width="10.10" stroke-opacity="1.00" stroke-linejoin="round"/>
<path d="M463.50,352.50 C464.13,353.03 465.29,354.28 466.14,355.50 C468.01,358.23 474.75,374.46 477.84,382.04 C483.83,397.14 495.79,427.72 500.23,436.30 C503.33,442.38 505.22,448.88 505.50,449.85 C502.49,451.69 496.81,453.07 491.62,453.02 C489.44,452.96 486.54,452.28 485.04,451.50 C484.72,451.32 484.17,450.92 483.40,450.30 C483.26,450.18 483.14,450.10 483.06,450.06" fill="none" stroke="rgb(0, 0, 0)" stroke-width="10.10" stroke-opacity="1.00" stroke-linejoin="round"/>
<path d="M441.00,359.25 C441.00,359.25 441.00,358.65 441.00,358.65 C439.80,358.55 438.91,358.81 438.08,359.73 C436.23,361.81 431.29,371.38 425.52,384.53 C418.79,400.59 405.26,433.15 402.26,440.94 C402.26,440.94 444.40,351.05 444.40,351.05 C440.00,360.87 426.92,394.97 421.45,410.50 C417.35,422.96 412.07,440.96 411.80,441.90 C413.87,436.72 419.04,423.78 422.39,415.78 C425.81,408.14 432.85,393.74 437.44,385.72 C440.89,379.86 446.81,369.86 452.00,362.00 C448.35,368.77 444.75,377.03 440.47,387.93 C437.27,396.41 431.51,411.92 428.95,418.95 C426.06,427.27 422.41,439.58 420.50,445.10 C420.58,445.20 425.32,432.59 430.65,420.95 C437.70,406.41 455.83,369.36 457.01,366.42 C458.42,362.88 458.73,361.28 458.75,360.15 C456.36,362.58 453.38,368.74 451.75,372.75 C451.08,374.40 443.95,393.79 441.08,402.15 C435.78,418.67 429.19,445.54 428.25,451.10 C429.41,449.31 437.09,431.23 439.73,425.15 C446.61,409.75 458.26,385.32 462.70,376.35 C455.45,394.28 447.13,417.91 441.91,435.65 C440.81,439.52 439.93,443.75 439.20,448.25 C440.84,445.47 457.41,407.77 463.35,397.02 C465.06,393.96 466.84,391.79 467.50,391.10 C467.50,391.10 452.70,448.40 452.70,448.40 C455.96,437.33 467.00,404.12 468.89,400.27 C469.82,398.40 470.63,397.72 471.35,397.75 C471.74,400.72 471.30,404.93 470.16,410.65 C464.24,437.37 461.64,446.06 461.00,448.15 C461.00,448.15 474.90,413.45 474.90,413.45 C475.49,416.30 474.93,422.76 474.61,426.59 C474.31,429.92 473.50,438.14 473.35,439.35 C473.35,439.35 478.00,421.55 478.00,421.55 C478.00,421.55 479.00,440.60 479.00,440.60 C479.00,440.60 481.25,429.50 481.25,429.50 C481.25,429.50 486.45,441.20 486.45,441.20 C487.83,440.58 488.48,439.50 488.75,436.98 C488.85,436.02 488.95,435.06 489.05,434.10 C489.87,434.37 494.21,442.06 494.75,442.55 C495.17,442.93 496.20,443.63 497.85,444.65 C495.28,440.32 489.97,426.00 486.85,416.85 C482.20,402.55 471.11,369.28 467.39,359.55 C466.36,356.86 464.52,353.79 463.75,352.65 C462.56,353.26 462.06,354.31 462.30,356.59 C462.64,359.79 479.49,433.08 480.50,439.95 C478.11,435.99 473.80,421.65 471.72,414.59 C469.51,406.88 465.25,392.08 463.20,385.00 C460.71,376.61 455.84,360.61 454.60,358.80 C454.60,358.80 453.60,359.05 453.60,359.05 C452.32,364.75 452.36,377.41 452.41,385.08 C452.84,407.49 453.77,425.55 454.25,433.10 C453.45,426.73 451.55,412.51 450.45,404.68 C449.15,396.80 445.81,379.85 443.65,374.92 C443.37,374.29 442.95,373.50 442.40,372.55 C441.18,375.27 440.11,380.46 439.89,384.48 C439.62,390.26 439.51,422.21 439.50,425.00 C439.50,425.00 441.55,364.40 441.55,364.40 C438.95,368.26 436.07,376.72 433.16,389.36 C427.17,417.26 426.58,422.52 426.35,426.20 C427.73,424.40 429.16,418.03 429.55,416.05 C430.75,409.66 430.75,408.56 430.45,408.05 C427.69,412.60 408.02,452.82 408.05,453.05 C408.25,454.23 410.11,455.70 411.35,455.67 C422.58,455.11 425.51,453.64 425.85,452.80 C422.78,452.38 415.59,451.46 411.31,451.09 C404.51,450.53 403.30,450.14 401.65,449.15 C401.65,449.15 401.50,448.00 401.50,448.00 C403.36,447.17 409.86,446.96 412.67,446.96 C446.36,447.55 479.35,450.45 483.65,451.45 C483.48,451.30 465.58,444.66 457.04,441.48 C444.21,436.77 441.41,435.96 438.70,435.60 C445.56,438.12 474.55,443.26 481.36,443.55 C485.71,443.70 486.22,443.55 486.75,442.95 C484.51,440.55 482.91,438.43 481.80,435.35 C480.33,431.17 470.93,392.70 467.09,376.55 C466.20,373.12 464.31,367.40 463.16,364.75 C461.32,360.55 460.58,359.77 459.70,359.45 C458.83,362.50 462.26,377.67 465.37,387.67 C467.29,393.57 473.21,409.54 476.13,416.87 C480.56,427.45 483.83,434.23 487.15,440.10 C487.15,440.10 460.00,351.45 460.00,351.45 C459.29,354.84 459.09,358.12 459.58,362.59 C460.23,368.11 463.18,387.67 464.30,391.25 C464.10,389.65 463.54,385.31 463.30,383.70 C463.06,382.09 462.39,378.36 462.14,377.02" fill="none" stroke="rgb(0, 0, 0)" stroke-width="10.10" stroke-opacity="1.00" stroke-linejoin="round"/>
<path d="M357.75,307.50 C357.75,307.50 358.50,307.50 358.50,307.50 C355.37,306.33 347.78,304.32 345.44,303.90 C336.75,302.36 310.65,301.53 301.95,301.75 C301.95,301.75 350.90,306.00 350.90,306.00 C335.64,304.87 297.58,302.14 286.83,301.66 C282.39,301.51 278.70,301.46 274.30,301.50 C273.96,301.50 273.53,301.50 273.00,301.50" fill="none" stroke="rgb(0, 0, 0)" stroke-width="10.10" stroke-opacity="1.00" stroke-linejoin="round"/>
<path d="M274.50,213.00 C273.54,207.13 272.71,200.90 273.45,197.11 C273.56,196.56 273.80,195.78 274.16,194.79 C274.16,194.79 275.30,297.90 275.30,297.90 C274.94,267.42 274.55,219.69 274.52,202.44 C274.47,193.92 274.16,190.66 273.65,186.75 C273.65,186.75 273.00,188.90 273.00,188.90" fill="none" stroke="rgb(0, 0, 0)" stroke-width="10.10" stroke-opacity="1.00" stroke-linejoin="round"/>
<path d="M534.00,303.00 C534.00,303.00 532.50,303.00 532.50,303.00 C533.81,304.14 534.64,304.59 536.30,304.87 C542.07,305.91 559.31,307.22 567.21,307.75 C584.40,308.55 601.88,308.15 602.25,307.55 C598.33,306.43 581.70,305.54 573.04,305.13 C560.03,304.71 542.94,305.50 541.95,305.55 C541.95,305.55 631.45,301.90 631.45,301.90 C630.85,286.12 628.35,257.83 626.85,242.35 C624.90,226.51 620.98,194.37 620.80,186.20 C622.18,190.06 624.23,203.62 624.99,212.13 C626.08,226.79 626.66,256.13 626.52,271.61 C626.19,282.77 625.03,297.73 624.00,300.20 C623.79,300.69 623.19,301.82 622.20,303.60 C621.14,302.11 620.55,300.77 620.08,298.55 C619.90,297.71 619.72,296.86 619.54,296.02" fill="none" stroke="rgb(0, 0, 0)" stroke-width="10.10" stroke-opacity="1.00" stroke-linejoin="round"/>
<path d="M364.50,348.00 C364.63,346.95 364.13,345.04 363.29,344.18 C363.04,343.93 355.94,341.61 350.74,341.36 C340.79,340.94 314.44,343.90 305.25,345.82 C306.35,346.33 359.16,344.08 360.95,343.90 C362.84,343.70 365.89,343.19 367.45,342.85 C363.45,341.12 352.65,341.04 341.53,341.36 C321.46,342.20 294.88,344.23 280.57,345.36 C278.84,345.53 276.20,346.35 274.53,347.25 C273.17,348.02 271.89,350.09 271.95,351.30 C272.04,352.27 273.57,354.14 274.40,354.45 C275.35,354.78 276.37,354.01 277.35,352.60 C276.72,370.19 276.58,392.95 277.22,412.06 C278.02,428.37 280.35,460.90 282.07,478.33 C284.00,493.70 289.19,530.73 289.20,531.20 C288.49,527.85 282.84,489.18 280.35,471.90 C277.80,452.55 275.77,426.41 274.65,410.09 C273.75,394.85 272.06,368.45 270.75,363.55 C269.44,368.20 268.60,385.61 268.42,392.07 C268.20,407.25 268.73,437.80 269.16,453.47 C271.52,496.57 274.56,523.37 275.53,529.83 C275.63,530.49 275.73,531.15 275.83,531.81" fill="none" stroke="rgb(0, 0, 0)" stroke-width="10.10" stroke-opacity="1.00" stroke-linejoin="round"/>
<path d="M537.00,343.50 C537.00,343.50 535.78,341.95 535.78,341.95 C541.85,342.56 556.73,344.04 565.54,344.91 C577.32,345.97 587.49,346.52 593.85,345.47 C598.73,344.62 599.75,344.01 600.43,343.04 C599.05,341.62 592.35,339.82 589.15,339.25 C583.47,338.27 572.73,338.14 560.99,338.68 C547.01,339.56 546.12,339.76 545.15,340.25 C548.84,341.16 563.88,341.65 572.02,341.87 C589.64,341.93 620.61,341.34 635.84,341.02 C646.27,341.00 647.54,341.43 649.30,342.45 C648.53,343.04 646.41,344.67 645.60,345.05 C645.08,345.30 643.88,345.75 642.00,346.42" fill="none" stroke="rgb(0, 0, 0)" stroke-width="10.10" stroke-opacity="1.00" stroke-linejoin="round"/>
<path d="M658.50,347.25 C656.24,346.18 655.18,345.86 651.67,345.21 C649.22,344.73 647.32,343.73 646.82,342.62 C646.56,342.00 646.50,340.56 646.50,338.29 C644.28,343.00 642.20,352.39 640.82,361.51 C639.29,373.00 637.80,403.21 637.80,421.50 C638.12,436.89 639.76,468.14 640.76,483.81 C642.00,499.36 644.49,533.64 644.80,543.60 C644.87,549.89 644.25,568.03 643.40,569.75 C643.21,570.12 642.69,570.89 641.85,572.05 C640.37,570.70 639.54,569.56 639.01,567.79 C638.03,564.49 635.47,543.29 635.09,537.96 C634.57,529.19 634.42,521.42 634.95,505.45 C636.85,472.25 641.39,399.12 642.08,378.13 C642.31,370.07 642.68,357.70 643.30,354.05 C644.21,355.16 644.36,360.52 644.40,364.45 C644.29,393.90 644.16,457.94 644.13,492.54 C644.56,530.29 645.59,586.69 645.90,618.04 C645.85,622.96 645.66,625.20 644.95,627.85 C643.76,625.29 643.20,622.91 642.61,618.18 C641.80,610.88 640.21,594.50 639.57,584.69 C637.85,543.96 638.68,513.98 639.70,504.15 C639.70,504.15 640.25,631.60 640.25,631.60 C639.21,616.47 638.87,589.43 639.08,574.60 C640.01,541.68 643.43,479.10 645.34,447.96 C646.10,431.18 647.35,399.86 647.59,384.74 C647.60,376.35 646.17,361.47 645.61,358.61 C644.99,355.54 643.13,350.32 642.00,348.10 C640.86,345.95 638.76,344.23 636.40,343.50 C633.36,342.62 615.53,340.50 605.75,340.29 C601.21,340.23 582.93,340.88 575.17,341.23 C559.76,342.27 539.01,343.59 538.57,343.50" fill="none" stroke="rgb(0, 0, 0)" stroke-width="10.10" stroke-opacity="1.00" stroke-linejoin="round"/>
<path d="M291.75,190.50 C288.87,191.97 285.12,194.84 284.24,195.37 C280.60,197.54 276.66,198.95 274.50,199.50 C285.59,198.55 320.18,196.76 335.93,196.13 C350.80,195.65 377.97,195.00 396.40,195.30 C428.14,196.31 493.09,198.95 526.31,200.57 C541.53,201.35 572.58,202.68 588.42,203.22 C603.66,203.41 621.55,202.50 624.08,202.11 C625.52,201.89 626.33,201.56 627.00,201.07" fill="none" stroke="rgb(0, 0, 0)" stroke-width="10.10" stroke-opacity="1.00" stroke-linejoin="round"/>
<path d="M286.50,208.50 C285.41,208.50 281.64,208.49 280.90,208.50 C278.07,208.54 275.55,208.05 274.16,207.11 C272.85,206.16 271.15,200.61 270.76,195.50 C270.39,190.13 273.33,168.82 274.01,166.14 C274.62,163.83 275.93,160.77 276.78,160.03 C277.74,159.25 280.24,158.43 281.77,158.34 C283.01,158.29 305.40,158.34 313.57,158.17 C318.09,158.14 323.91,159.04 325.95,160.40 C327.54,161.51 330.31,164.38 331.35,166.00 C332.55,167.95 333.27,173.34 333.06,177.38 C332.91,180.19 332.26,187.92 332.00,191.00 C331.82,192.81 331.57,195.46 331.50,196.31" fill="none" stroke="rgb(0, 0, 0)" stroke-width="10.10" stroke-opacity="1.00" stroke-linejoin="round"/>
<path d="M395.25,189.75 C394.06,190.30 390.78,191.83 390.27,191.93 C389.94,191.99 389.51,191.92 388.99,191.71 C388.89,189.13 393.77,177.47 399.08,166.58 C400.61,163.53 404.81,155.92 406.45,154.56 C407.64,153.62 427.35,154.49 431.79,154.80 C435.70,155.07 442.98,155.61 444.60,156.47 C445.89,157.21 448.24,161.77 448.53,163.41 C448.98,166.18 449.40,181.68 449.47,185.68 C449.50,187.96 449.60,188.64 449.86,188.96" fill="none" stroke="rgb(0, 0, 0)" stroke-width="10.10" stroke-opacity="1.00" stroke-linejoin="round"/>
<path d="M558.75,207.00 C556.78,206.99 554.23,207.00 552.60,207.00 C550.75,206.98 549.38,206.01 548.68,204.30 C547.20,200.37 545.77,185.59 545.71,176.07 C545.71,166.72 546.79,158.92 547.69,157.52 C548.48,156.42 550.44,155.28 552.22,155.00 C555.71,154.50 578.33,154.47 583.08,154.62 C590.08,154.87 605.68,155.46 608.10,156.95 C610.39,158.46 612.13,164.30 613.05,169.62 C613.61,173.41 614.65,180.75 615.13,184.93 C615.51,188.52 616.13,194.47 616.47,196.31" fill="none" stroke="rgb(0, 0, 0)" stroke-width="10.10" stroke-opacity="1.00" stroke-linejoin="round"/>
<path d="M284.25,527.25 C283.38,525.90 281.84,522.18 279.77,516.34 C278.98,514.06 278.55,513.41 277.99,513.37 C277.99,513.37 278.59,585.53 278.59,585.53 C277.70,582.49 276.64,567.43 276.10,559.06 C275.59,548.22 275.89,540.14 276.83,530.19 C277.89,520.32 279.58,516.23 280.15,515.25 C281.12,519.68 280.63,535.77 280.32,544.07 C279.34,565.82 277.67,585.46 276.30,587.00 C275.50,586.07 274.93,581.65 274.58,579.07 C273.66,571.34 271.84,531.07 271.16,513.86 C271.02,506.65 270.88,486.27 271.17,481.00 C271.46,475.98 276.94,437.96 279.00,422.10 C280.25,410.49 281.75,388.55 281.92,383.15 C282.00,380.90 282.01,379.97 282.00,378.07" fill="none" stroke="rgb(0, 0, 0)" stroke-width="10.10" stroke-opacity="1.00" stroke-linejoin="round"/>
<path d="M538.50,341.25 C538.50,341.25 515.62,340.50 515.62,340.50 C519.45,339.02 533.68,337.54 541.23,336.83 C573.94,334.73 629.33,332.32 633.65,332.77 C635.17,332.95 636.74,333.47 637.88,334.18 C638.91,334.87 639.77,336.15 640.03,337.41 C640.37,339.24 640.68,381.82 640.83,396.80 C641.58,431.44 643.90,487.55 644.62,495.41" fill="none" stroke="rgb(0, 0, 0)" stroke-width="10.10" stroke-opacity="1.00" stroke-linejoin="round"/>
<path d="M326.25,617.25 C324.20,615.79 319.42,612.39 316.69,610.45 C309.70,605.55 292.71,596.06 291.03,596.37 C290.65,596.45 289.74,596.77 288.30,597.34 C289.74,600.33 292.39,603.61 296.17,606.95 C303.52,613.33 329.23,634.83 343.11,645.93 C355.57,655.39 380.82,674.13 393.61,683.40 C421.18,702.66 478.25,742.11 487.95,749.65 C477.90,741.91 453.34,723.03 438.82,711.89 C425.39,701.88 403.21,685.64 389.84,676.74 C377.21,668.67 351.18,652.34 338.09,644.60 C317.94,633.27 277.95,614.06 275.60,612.95 C292.60,619.77 314.78,629.47 328.59,635.54 C344.45,642.83 372.05,656.24 384.40,662.38 C413.65,677.69 472.48,708.85 502.07,724.70 C527.84,738.56 577.96,765.27 583.30,768.95 C578.44,767.74 554.06,757.15 529.50,744.95 C504.33,731.80 445.33,700.74 411.49,682.82 C396.81,675.02 370.40,660.94 358.65,654.67 C345.34,647.53 322.84,634.01 310.37,625.45 C302.93,620.17 292.44,611.35 287.85,606.60 C285.28,603.92 280.24,597.89 279.10,595.95 C279.51,595.66 308.75,619.60 322.28,630.67 C335.38,641.03 360.77,660.67 373.06,669.96 C385.23,678.66 410.59,696.24 423.78,705.13 C456.64,726.12 491.12,746.58 503.94,754.01 C510.92,758.04 518.91,762.67 519.91,763.25" fill="none" stroke="rgb(0, 0, 0)" stroke-width="10.10" stroke-opacity="1.00" stroke-linejoin="round"/>
<path d="M610.50,751.50 C609.42,751.35 603.68,754.12 600.38,755.69 C596.45,757.61 587.25,762.16 587.04,762.30 C586.57,762.60 585.55,763.36 583.97,764.58 C583.97,764.58 584.25,764.95 584.25,764.95 C584.25,764.95 584.69,765.00 584.69,765.00" fill="none" stroke="rgb(0, 0, 0)" stroke-width="10.10" stroke-opacity="1.00" stroke-linejoin="round"/>
<path d="M631.50,680.25 C633.32,677.47 636.32,670.55 637.15,667.78 C638.69,662.52 639.13,650.01 638.70,641.19 C638.51,638.02 638.13,632.50 637.93,630.15 C636.73,636.80 633.12,672.24 631.68,689.82 C628.50,737.70 628.52,755.21 628.15,760.55 C627.12,755.12 629.39,716.64 630.45,699.54 C631.41,683.84 633.20,649.28 633.22,637.36 C633.27,632.89 633.39,632.31 633.90,631.20 C634.68,631.57 635.10,632.12 635.61,633.71 C637.18,638.66 639.89,653.35 641.01,660.90 C644.69,693.28 649.69,736.01 649.63,739.05 C649.56,740.73 648.43,742.88 647.20,743.50 C646.49,743.84 643.59,743.97 642.74,744.00" fill="none" stroke="rgb(0, 0, 0)" stroke-width="10.10" stroke-opacity="1.00" stroke-linejoin="round"/>
<path d="M625.50,755.25 C625.50,755.25 616.66,764.01 616.66,764.01 C616.66,764.01 661.55,702.75 661.55,702.75 C652.93,714.25 634.73,738.48 625.15,751.20 C618.48,759.79 614.92,763.31 613.10,764.70 C613.86,762.24 622.95,749.03 626.92,743.30 C647.07,714.45 668.68,683.50 670.15,681.40 C669.51,681.62 669.09,681.77 668.90,681.85 C668.75,681.91 668.49,682.04 668.10,682.25 C668.00,682.30 667.89,682.36 667.76,682.42" fill="none" stroke="rgb(0, 0, 0)" stroke-width="10.10" stroke-opacity="1.00" stroke-linejoin="round"/>
<path d="M301.50,619.50 C298.63,619.07 294.22,616.18 291.65,614.07 C279.40,604.01 253.47,582.98 239.80,572.01 C233.88,567.48 229.49,564.30 225.47,561.53 C224.26,560.72 219.46,557.44 216.42,556.34 C216.42,556.34 215.43,556.99 215.43,556.99 C217.69,561.26 227.90,573.29 232.95,578.86 C238.13,584.40 247.77,594.16 254.31,600.21 C259.66,604.95 273.11,615.97 276.65,618.50 C283.35,623.28 298.75,630.78 300.75,630.70 C301.12,630.68 302.01,630.55 303.40,630.30 C303.99,629.15 303.58,627.25 302.10,625.15 C299.85,622.00 288.85,612.82 281.30,607.42 C269.23,598.98 242.90,582.78 229.64,574.77 C225.16,571.97 221.26,569.17 218.80,566.75 C221.20,566.70 222.37,566.88 223.91,567.66 C229.92,570.58 241.20,578.13 246.63,581.80 C260.44,591.37 286.64,609.65 299.04,618.36 C311.42,626.93 336.72,643.43 349.59,651.63 C363.79,660.79 392.70,679.78 407.41,689.61 C412.46,692.99 418.40,696.98 419.29,697.58" fill="none" stroke="rgb(0, 0, 0)" stroke-width="10.10" stroke-opacity="1.00" stroke-linejoin="round"/>
<path d="M246.00,606.75 C241.84,603.74 234.87,597.95 231.53,591.77 C229.85,588.61 228.02,581.86 226.97,576.92 C226.06,572.81 223.95,566.44 222.08,563.32 C221.11,561.72 220.54,561.03 219.50,560.10 C218.97,563.84 219.25,579.21 219.42,587.03 C220.19,603.90 221.97,637.55 222.98,654.34 C224.34,670.98 227.43,703.23 229.17,718.84 C231.33,735.85 233.55,748.43 233.90,750.40 C229.51,719.41 220.50,653.05 215.87,617.67 C213.76,598.40 213.30,587.13 213.80,586.10 C216.59,599.57 217.76,616.94 218.34,640.16 C218.66,657.01 219.51,691.34 220.04,708.81 C221.23,731.79 222.08,736.09 223.09,740.07" fill="none" stroke="rgb(0, 0, 0)" stroke-width="10.10" stroke-opacity="1.00" stroke-linejoin="round"/>
<path d="M267.00,768.75 C255.94,766.18 245.42,764.09 237.73,763.00 C234.02,762.48 230.10,762.48 225.30,762.98 C223.49,763.18 222.31,763.96 220.71,765.79 C221.86,768.01 225.30,770.61 229.86,772.19 C235.35,774.04 252.01,776.99 259.48,777.70 C270.30,778.66 303.93,780.28 313.80,780.25 C348.04,779.30 415.99,777.31 449.69,776.27 C463.67,775.97 478.54,776.94 479.40,777.00 C473.47,777.65 387.02,776.62 353.38,776.31 C336.94,776.26 304.30,776.31 288.11,776.41 C239.30,777.56 227.44,778.24 226.95,778.70 C238.44,779.71 313.21,781.78 344.34,782.44 C376.95,782.71 443.58,783.03 477.58,783.07 C495.74,783.05 527.93,783.02 541.98,783.01 C555.34,783.00 571.20,783.00 573.70,783.00 C574.90,783.00 576.09,783.00 577.29,783.00" fill="none" stroke="rgb(0, 0, 0)" stroke-width="10.10" stroke-opacity="1.00" stroke-linejoin="round"/>
<path d="M679.50,707.25 C679.51,704.32 679.56,696.69 679.61,692.00 C679.62,689.25 679.94,688.17 680.89,687.01 C681.91,687.97 682.50,689.17 682.81,691.43 C683.42,695.92 687.01,779.17 686.95,781.30 C685.59,775.90 679.15,735.22 676.30,719.91 C674.58,710.58 672.50,696.50 673.25,694.40 C673.63,693.35 675.00,691.27 675.00,691.50" fill="none" stroke="rgb(0, 0, 0)" stroke-width="10.10" stroke-opacity="1.00" stroke-linejoin="round"/>
<path d="M684.00,717.00 C684.37,717.00 684.69,716.95 684.93,716.85 C685.18,716.75 685.71,716.45 686.52,715.95" fill="none" stroke="rgb(0, 0, 0)" stroke-width="10.10" stroke-opacity="1.00" stroke-linejoin="round"/>
<path d="M690.00,717.75 C690.00,717.75 687.34,722.35 687.34,722.35 C689.70,716.59 695.26,707.07 699.52,701.36 C713.02,683.83 742.31,647.32 743.05,646.40 C738.67,653.66 718.86,683.60 709.14,698.14 C702.48,707.96 699.92,711.31 697.25,714.15 C697.97,711.51 701.91,705.63 704.20,702.20 C717.47,682.06 743.25,650.47 749.88,643.23 C751.67,641.29 754.51,638.64 755.50,638.60 C754.67,643.61 754.49,646.80 755.07,649.74 C756.06,654.86 758.46,663.85 762.82,676.85 C768.28,691.82 780.12,723.45 786.51,740.11 C794.84,761.26 799.11,770.60 804.10,779.70 C803.03,776.18 794.70,762.98 789.85,756.07 C787.04,752.13 774.31,736.25 770.99,732.55 C767.49,728.76 764.07,725.68 761.95,724.40 C763.95,727.92 767.76,732.07 772.05,735.85 C776.23,739.51 815.60,771.16 815.95,771.50 C818.56,774.15 820.44,777.48 819.75,778.45 C819.75,778.45 819.05,778.50 819.05,778.50" fill="none" stroke="rgb(0, 0, 0)" stroke-width="10.10" stroke-opacity="1.00" stroke-linejoin="round"/>
<path d="M222.00,708.00 C222.00,708.00 222.00,718.06 222.00,718.06 C222.00,718.06 220.85,711.35 220.85,711.35 C220.85,711.35 223.50,714.45 223.50,714.45 C221.28,715.04 220.10,714.86 218.52,713.38 C212.50,707.78 201.69,699.73 194.08,694.48 C180.72,685.62 162.79,674.09 159.95,672.05 C159.75,672.36 198.79,708.62 202.75,711.95 C211.69,719.43 216.00,720.76 217.90,721.05 C217.90,721.05 218.80,719.85 218.80,719.85 C215.18,711.40 210.52,704.23 205.19,698.34 C200.73,693.43 191.00,684.17 186.01,680.42 C180.83,676.55 172.92,671.96 169.65,670.75 C169.65,670.75 169.50,671.75 169.50,671.75 C171.14,673.47 175.71,677.54 176.35,678.35 C177.10,679.33 178.34,682.02 178.85,683.70 C179.55,686.19 178.39,692.63 176.88,698.47 C173.74,709.76 172.48,713.16 172.10,714.10 C172.10,714.10 185.15,678.10 185.15,678.10 C183.53,679.82 175.33,695.25 170.95,703.50 C163.17,717.82 144.90,750.97 140.89,756.91 C139.37,759.14 136.24,763.12 135.05,764.55 C135.56,761.07 141.01,748.62 144.01,741.82 C156.92,712.28 171.89,678.02 173.95,673.30 C171.49,682.20 169.01,689.74 164.83,699.50 C158.41,713.92 144.67,740.82 134.89,757.90 C131.69,763.40 124.70,775.45 120.90,782.00 C121.89,781.17 122.54,780.60 122.85,780.30 C122.94,780.21 124.20,778.72 124.25,778.75" fill="none" stroke="rgb(0, 0, 0)" stroke-width="10.10" stroke-opacity="1.00" stroke-linejoin="round"/>
<path d="M399.00,352.50 C399.00,352.50 399.00,351.40 399.00,351.40 C398.80,350.94 381.65,352.99 372.53,353.87 C363.60,354.60 340.99,356.48 340.65,356.80 C344.32,357.68 350.54,357.86 354.24,357.99 C367.60,358.21 396.17,357.62 400.50,358.15 C384.72,357.10 355.63,355.48 340.96,355.52 C329.81,355.70 322.87,356.06 318.10,356.65 C321.48,357.07 371.43,355.74 378.15,355.95 C388.22,356.30 396.65,358.43 397.50,358.65 C392.03,357.25 379.48,355.27 370.45,354.80 C360.53,354.41 323.91,353.93 308.10,353.72 C303.79,353.60 295.13,352.69 293.85,352.65 C293.85,352.65 329.70,355.25 329.70,355.25 C329.70,355.25 285.15,354.25 285.15,354.25 C284.91,370.96 285.72,392.74 287.18,413.23 C287.82,425.66 288.04,458.59 287.99,473.59 C287.99,489.63 288.03,521.74 287.12,532.07 C285.90,544.34 285.09,556.26 284.91,564.57 C284.88,570.62 285.32,589.36 286.20,592.00 C286.82,593.83 287.69,595.44 288.00,595.50" fill="none" stroke="rgb(191, 161, 74)" stroke-width="10.10" stroke-opacity="1.00" stroke-linejoin="round"/>
<path d="M513.75,352.50 C513.75,352.50 494.54,350.15 494.54,350.15 C500.15,349.17 517.60,348.44 522.47,348.45 C529.79,348.48 537.56,349.62 538.45,349.75 C533.05,349.65 516.21,346.15 513.00,345.60 C503.88,344.06 494.74,344.20 494.05,344.90 C493.63,345.35 492.86,347.08 491.54,348.25 C489.94,349.69 489.63,350.07 489.70,350.45 C494.27,351.14 509.18,350.26 516.65,349.78 C533.38,348.76 565.97,347.01 580.83,346.54 C601.83,346.29 608.10,346.88 619.35,348.92 C623.20,349.58 627.81,349.47 627.90,349.50 C628.48,349.68 629.18,350.06 630.00,350.65 C630.17,350.78 630.17,350.84 630.00,350.84" fill="none" stroke="rgb(191, 161, 74)" stroke-width="10.10" stroke-opacity="1.00" stroke-linejoin="round"/>
<path d="M630.00,348.00 C630.00,349.87 632.23,356.62 632.69,360.53 C632.98,363.16 633.06,405.63 632.92,421.94 C632.40,435.76 631.62,465.03 631.35,480.48 C631.36,497.26 631.45,528.79 631.54,543.54 C631.82,562.61 631.06,585.93 630.16,602.54 C629.37,618.73 628.28,646.60 628.44,663.12 C628.84,677.64 629.60,707.94 629.96,723.73 C630.00,727.51 630.02,734.21 630.01,737.15 C630.01,738.00 630.00,739.14 630.00,739.42" fill="none" stroke="rgb(191, 161, 74)" stroke-width="10.10" stroke-opacity="1.00" stroke-linejoin="round"/>
<path d="M393.75,300.00 C393.75,300.00 396.00,300.00 396.00,300.00 C386.13,298.22 377.31,297.38 366.31,297.05 C350.40,297.04 325.93,297.06 306.00,295.50 C303.16,295.34 297.05,295.36 294.23,294.77 C292.73,294.47 289.33,293.10 289.20,293.10 C288.88,293.10 288.48,293.40 288.00,294.00" fill="none" stroke="rgb(191, 161, 74)" stroke-width="10.10" stroke-opacity="1.00" stroke-linejoin="round"/>
<path d="M280.50,210.00 C280.50,210.00 280.50,207.00 280.50,207.00 C280.63,213.21 278.63,249.23 277.92,267.21 C277.73,274.72 277.48,288.15 277.50,293.00 C277.50,295.62 277.50,298.40 277.50,298.37" fill="none" stroke="rgb(191, 161, 74)" stroke-width="10.10" stroke-opacity="1.00" stroke-linejoin="round"/>
<path d="M502.50,301.50 C502.50,301.50 501.00,300.33 501.00,300.33 C502.39,301.19 508.63,301.51 512.28,301.72 C523.40,302.22 531.56,302.33 539.85,301.70 C546.59,301.10 561.53,299.67 569.22,298.78 C580.33,297.24 594.96,294.52 598.45,294.25 C603.38,293.90 611.10,295.42 612.55,295.25 C613.01,295.19 613.32,294.92 613.50,294.45 C613.53,294.35 613.53,294.25 613.50,294.15" fill="none" stroke="rgb(191, 161, 74)" stroke-width="10.10" stroke-opacity="1.00" stroke-linejoin="round"/>
<path d="M615.00,205.50 C614.88,208.63 615.02,213.84 615.30,219.19 C616.33,237.72 616.51,287.09 616.50,291.55 C616.50,292.32 616.50,293.08 616.50,293.85" fill="none" stroke="rgb(191, 161, 74)" stroke-width="10.10" stroke-opacity="1.00" stroke-linejoin="round"/>
<path d="M283.50,171.00 C283.50,171.00 280.61,208.69 280.61,208.69 C280.43,183.95 280.80,176.81 281.67,172.03 C282.14,169.68 283.09,167.26 284.00,166.65 C285.09,165.98 307.41,167.33 315.27,167.90 C318.86,168.13 323.71,166.96 324.20,166.90 C325.25,169.62 325.33,175.93 325.39,179.64 C325.48,187.22 325.70,198.22 325.85,198.70 C325.96,199.02 326.29,199.79 326.83,201.00" fill="none" stroke="rgb(191, 161, 74)" stroke-width="10.10" stroke-opacity="1.00" stroke-linejoin="round"/>
<path d="M327.00,199.50 C327.36,201.31 328.03,202.33 329.63,202.98 C332.38,204.09 338.42,205.31 344.27,205.29 C346.39,205.27 367.24,203.99 375.96,203.39 C388.80,202.36 397.89,201.03 398.35,201.00 C398.67,200.98 400.11,201.01 400.34,201.00" fill="none" stroke="rgb(191, 161, 74)" stroke-width="10.10" stroke-opacity="1.00" stroke-linejoin="round"/>
<path d="M402.00,165.75 C402.00,165.75 402.00,165.00 402.00,165.00 C401.27,172.30 400.46,187.21 400.45,192.25 C400.46,194.32 400.49,197.72 400.50,199.05 C399.90,196.38 399.24,191.60 398.74,186.33 C398.37,181.75 398.46,176.51 399.15,172.58 C399.51,170.76 400.09,168.44 400.52,167.86 C401.52,166.62 409.31,165.46 413.93,164.89 C424.70,163.65 437.27,163.93 439.90,165.00 C440.84,165.42 441.75,166.74 441.98,168.02 C442.51,171.43 442.51,190.00 442.50,196.60 C442.50,197.07 442.50,197.53 442.50,198.00" fill="none" stroke="rgb(191, 161, 74)" stroke-width="10.10" stroke-opacity="1.00" stroke-linejoin="round"/>
<path d="M444.00,207.00 C444.00,206.55 446.71,204.80 453.24,204.79 C469.96,205.03 512.73,205.56 518.49,205.25 C518.82,205.24 537.97,203.91 545.55,203.43 C553.19,203.01 564.77,202.38 568.20,203.25 C566.50,201.87 564.27,197.49 563.10,192.30 C562.44,189.31 559.14,166.76 558.25,165.30 C558.07,165.02 557.79,164.82 557.40,164.70 C557.40,164.70 555.00,200.65 555.00,200.65 C555.11,185.65 555.24,165.99 555.60,163.48 C555.79,162.27 557.06,160.71 558.01,160.36 C559.91,159.76 577.78,161.30 584.95,161.95 C588.38,162.21 593.07,162.31 596.74,163.75 C599.49,164.80 600.60,164.97 602.05,164.45 C604.15,163.70 605.62,163.54 606.65,164.25 C607.73,165.05 609.17,167.03 609.50,168.22 C610.21,170.99 614.90,218.48 614.53,222.89 C614.38,224.70 613.25,232.41 612.78,235.49 C612.08,239.80 612.01,240.52 612.00,241.37" fill="none" stroke="rgb(191, 161, 74)" stroke-width="10.10" stroke-opacity="1.00" stroke-linejoin="round"/>
<path d="M310.50,180.00 C310.97,178.82 312.00,176.33 312.00,175.77 C311.96,174.69 310.08,172.40 308.76,172.03 C307.19,171.63 303.96,171.84 302.43,172.36 C296.84,174.40 289.15,180.82 287.00,183.69 C289.65,183.53 296.32,180.47 299.02,179.11 C303.06,177.10 306.90,176.11 309.60,176.25 C309.39,178.57 307.31,182.55 303.77,187.02 C299.23,192.61 291.44,202.25 288.60,206.55 C290.92,206.18 292.26,205.72 293.96,204.51 C300.41,199.90 311.26,192.16 316.20,189.35 C316.00,191.04 315.69,191.96 314.83,193.07 C312.93,195.55 293.99,219.35 292.70,221.80 C295.06,221.56 300.06,218.95 305.27,215.50 C317.72,206.90 318.66,206.41 320.30,205.85 C320.58,206.47 315.92,211.98 314.85,213.25 C303.87,226.26 289.21,243.67 287.95,245.70 C288.85,245.90 293.59,242.34 296.29,240.35 C303.09,235.27 316.95,225.04 323.50,220.45 C331.43,215.21 340.41,210.00 342.80,209.15 C342.98,209.94 342.68,210.54 341.18,212.06 C309.01,245.56 298.23,257.82 296.45,259.85 C310.07,249.26 329.66,235.10 341.86,227.21 C350.46,221.86 359.00,217.14 367.50,213.30 C369.15,212.53 370.44,212.23 373.25,211.85 C373.34,213.26 373.08,214.04 371.91,215.37 C367.31,220.66 336.97,247.82 324.47,258.94 C314.72,267.88 307.62,275.28 305.70,277.85 C305.70,277.85 306.00,278.95 306.00,278.95 C313.05,275.20 322.49,268.21 327.76,264.31 C377.15,227.22 381.58,224.12 386.10,221.10 C386.10,221.10 325.50,278.30 325.50,278.30 C328.90,275.04 335.90,268.35 347.10,258.85 C359.75,248.68 384.67,228.98 396.95,219.45 C406.25,212.56 416.08,206.51 419.35,205.15 C419.35,205.15 420.20,206.10 420.20,206.10 C418.61,208.94 411.76,216.86 404.26,223.72 C397.54,229.59 382.67,242.37 380.62,243.58 C380.30,243.76 379.79,244.04 379.09,244.42" fill="none" stroke="rgb(191, 161, 74)" stroke-width="10.10" stroke-opacity="1.00" stroke-linejoin="round"/>
<path d="M427.50,171.75 C427.50,171.75 426.20,169.57 426.20,169.57 C424.79,170.18 420.84,175.41 418.51,178.45 C416.19,181.57 412.24,186.84 410.95,189.36 C413.88,187.47 420.73,183.09 424.64,180.60 C426.84,179.18 427.68,178.93 428.64,179.23 C428.56,180.76 428.27,181.64 427.23,183.13 C423.19,189.04 415.32,198.67 410.51,203.72 C388.38,225.98 344.63,269.30 343.90,270.05 C355.48,261.99 381.34,244.19 395.63,234.45 C410.21,224.90 428.72,214.93 435.00,212.07 C439.84,209.90 440.94,209.64 443.40,209.40 C442.88,211.64 439.91,214.84 438.13,216.76 C434.42,220.58 404.10,249.27 392.16,260.59 C382.13,270.50 376.41,277.11 372.44,282.05 C371.32,283.48 370.92,284.53 370.75,286.00 C374.06,284.86 378.14,282.02 380.61,280.32 C393.65,270.55 420.65,250.17 434.61,239.58 C454.01,225.02 463.44,218.64 470.45,215.00 C466.16,220.55 458.89,227.84 454.84,231.59 C442.07,242.99 416.87,265.23 404.42,276.06 C401.19,278.83 395.95,282.80 392.31,285.14 C390.84,286.09 390.05,286.35 388.65,286.45 C389.11,284.64 393.16,279.87 395.52,277.06 C403.50,267.91 406.98,264.55 409.97,262.03" fill="none" stroke="rgb(191, 161, 74)" stroke-width="10.10" stroke-opacity="1.00" stroke-linejoin="round"/>
<path d="M399.00,284.25 C399.00,284.25 389.87,292.74 389.87,292.74 C393.48,289.24 406.71,278.88 413.39,274.77 C422.43,269.38 435.60,262.38 439.81,260.35 C442.78,258.95 448.47,257.68 453.63,256.89 C456.17,256.53 466.65,255.36 467.80,255.30 C472.19,255.11 477.15,256.19 479.77,257.15 C483.25,258.45 487.18,260.74 489.62,262.86 C491.73,264.72 494.49,268.35 496.75,271.70 C499.19,275.41 500.43,280.57 500.83,286.88 C500.99,289.77 501.02,290.46 501.00,291.30 C500.80,288.28 498.62,279.68 498.10,278.25 C496.83,274.84 492.30,269.01 489.50,266.75 C487.78,265.39 481.56,262.27 478.22,261.25 C471.89,259.37 455.05,257.90 447.35,258.05 C439.12,258.24 424.77,261.03 417.86,263.50 C411.58,265.78 397.43,273.93 393.70,277.40 C388.04,282.78 386.66,287.12 386.15,289.90 C386.15,289.90 387.10,290.55 387.10,290.55 C388.73,288.43 397.07,276.06 401.56,270.47 C405.68,265.39 416.83,254.29 422.35,249.80 C426.57,246.38 441.45,236.23 445.83,233.52 C453.72,228.82 462.06,224.47 471.92,219.89 C479.92,216.36 496.41,209.19 498.35,208.90 C495.48,212.22 458.67,243.10 454.95,247.20 C454.66,247.52 453.99,248.29 452.95,249.50 C453.65,249.86 456.70,247.76 509.81,212.67 C517.01,207.99 522.27,205.58 523.20,205.15 C523.20,205.15 523.80,206.10 523.80,206.10 C521.96,208.97 508.58,223.29 501.95,230.38 C496.59,236.12 489.28,243.91 488.65,245.40 C490.67,244.73 537.71,214.00 541.15,213.20 C541.48,213.13 542.13,213.13 543.10,213.20 C541.63,216.79 533.26,225.28 524.13,233.93 C517.45,240.14 507.48,249.41 504.20,252.45 C504.20,252.45 590.35,183.15 590.35,183.15 C582.12,195.58 567.20,214.71 555.32,228.43 C529.29,257.26 510.85,273.79 510.00,274.55 C516.43,268.60 523.46,262.94 532.04,256.58 C544.95,247.42 575.38,227.48 583.14,222.99 C586.86,220.87 590.66,219.18 594.70,217.70 C592.16,222.35 585.53,229.30 574.80,239.45 C533.47,278.02 526.37,283.57 525.45,284.30 C528.58,281.43 540.21,272.77 546.50,268.40 C565.97,255.65 573.56,252.66 576.32,251.87 C578.07,251.37 579.08,251.81 580.25,253.25 C579.44,255.59 577.93,257.98 574.67,261.99 C569.62,268.04 550.24,288.02 546.45,292.95 C546.45,292.95 547.40,294.00 547.40,294.00 C549.27,293.93 564.65,287.09 572.64,283.51 C576.60,281.72 583.51,278.59 586.47,277.26 C587.20,276.92 587.94,276.59 588.67,276.26" fill="none" stroke="rgb(191, 161, 74)" stroke-width="10.10" stroke-opacity="1.00" stroke-linejoin="round"/>
<path d="M300.75,370.50 C302.12,369.78 303.75,368.25 304.82,367.18 C305.15,366.90 305.69,366.59 306.43,366.24 C304.57,369.87 300.99,374.94 298.93,377.90 C297.72,379.59 297.38,380.42 297.29,381.57 C298.23,382.06 299.35,382.22 300.94,381.67 C304.74,380.35 326.07,369.57 327.85,369.35 C325.52,372.45 311.43,385.26 304.44,391.56 C294.10,400.91 293.66,401.47 293.45,402.30 C296.39,401.21 312.35,391.25 320.15,386.36 C341.31,373.36 344.26,372.30 346.50,371.65 C345.46,374.52 316.08,402.60 305.13,413.12 C302.74,415.50 300.06,418.87 299.25,420.05 C310.66,411.37 336.39,391.77 349.13,382.36 C359.89,374.78 374.68,365.97 374.75,365.93 C376.04,365.15 376.95,364.90 379.00,364.65 C378.10,367.19 374.93,371.08 373.03,373.42 C369.29,377.84 340.85,408.98 329.15,421.77 C312.07,440.68 299.96,455.66 295.10,462.25 C300.58,456.93 325.88,429.61 338.07,416.42 C349.41,404.29 370.34,383.05 380.58,374.16 C384.36,370.99 385.21,370.48 387.55,369.35 C386.69,371.95 382.87,377.34 382.00,378.59 C372.16,392.55 353.13,419.64 343.94,432.77 C336.42,443.81 317.54,472.97 307.89,488.04 C303.86,494.33 296.74,505.36 294.40,507.85 C294.57,504.65 303.63,489.47 306.82,484.40 C313.84,473.76 335.60,444.70 344.82,433.26 C349.50,427.63 359.96,415.84 365.58,409.89 C371.51,403.90 383.34,392.18 389.22,386.46 C395.24,380.65 400.50,375.91 402.60,375.20 C401.36,378.42 393.87,389.68 390.24,395.10 C370.11,425.64 335.65,480.54 319.10,507.20 C305.00,530.02 300.49,536.34 296.00,541.55 C298.40,534.74 304.05,524.67 307.75,518.43 C315.93,505.19 331.98,480.72 340.21,468.37 C350.11,453.96 368.51,429.86 378.57,416.94 C389.02,403.92 412.47,375.02 416.65,371.65 C417.00,371.37 417.85,370.75 419.20,369.80 C419.40,371.62 413.19,381.98 408.08,389.63 C390.18,416.21 353.48,470.98 334.66,499.17 C320.15,521.56 309.26,539.52 301.28,554.15 C294.47,567.08 287.79,580.60 287.35,581.50 C289.44,579.11 308.84,546.68 317.83,532.00 C342.08,493.91 356.82,473.14 363.02,465.17 C365.83,461.66 367.35,460.19 369.45,459.05 C370.19,460.67 370.29,461.60 369.71,463.33 C366.99,471.86 363.21,481.39 359.16,490.68 C352.70,504.80 337.41,535.75 330.83,546.41 C329.81,548.13 328.96,549.11 327.05,550.90 C326.52,549.79 326.49,549.00 327.09,547.29 C329.45,540.32 335.53,527.92 339.27,521.18 C345.92,509.59 359.35,490.50 363.30,485.10 C365.96,481.32 368.99,476.26 369.58,473.59 C370.05,471.22 367.85,467.86 366.80,466.85 C367.06,466.16 367.64,465.84 369.46,465.59 C375.54,464.75 394.04,463.49 396.15,463.55 C397.30,463.59 405.29,464.42 411.60,463.90 C414.33,463.66 435.88,460.42 440.51,459.84 C455.45,458.10 488.54,457.47 503.59,457.33 C507.08,457.23 514.16,456.62 516.80,456.23 C520.41,455.68 523.11,455.06 523.43,454.67" fill="none" stroke="rgb(191, 161, 74)" stroke-width="10.10" stroke-opacity="1.00" stroke-linejoin="round"/>
<path d="M489.00,368.25 C489.00,368.25 485.61,364.54 485.61,364.54 C485.10,365.66 485.09,366.42 485.71,367.96 C487.20,371.84 494.40,388.43 497.44,395.30 C500.92,402.70 508.38,417.16 512.27,424.08 C519.32,435.99 525.37,442.99 526.43,443.93" fill="none" stroke="rgb(191, 161, 74)" stroke-width="10.10" stroke-opacity="1.00" stroke-linejoin="round"/>
<path d="M378.75,480.75 C378.75,480.75 380.49,478.79 380.49,478.79 C381.08,479.95 379.54,483.41 377.09,487.87 C373.98,493.42 312.68,589.87 310.40,592.74 C309.82,592.27 318.67,579.51 324.66,571.47 C335.89,556.89 354.15,535.21 364.80,523.30 C399.24,486.84 407.48,481.29 410.20,479.75 C410.14,481.65 409.91,482.54 408.97,483.98 C408.82,484.21 359.34,566.57 343.20,593.65 C342.29,595.13 340.82,597.50 340.25,598.40 C348.98,586.58 368.50,560.75 379.05,547.80 C389.33,535.88 411.05,512.10 422.22,500.57 C428.60,494.20 438.02,485.33 445.44,479.17 C446.89,477.91 447.76,477.65 449.50,477.80 C448.21,481.56 441.12,492.04 437.66,497.10 C417.47,526.28 378.67,582.37 360.08,609.28 C355.57,615.72 350.71,622.32 344.70,629.95 C344.52,629.26 351.27,617.84 357.67,608.24 C366.04,596.25 385.99,569.40 395.50,557.29 C405.55,544.86 427.05,519.78 438.38,507.29 C453.87,490.55 463.30,481.85 468.46,477.35 C471.97,474.38 475.76,472.06 478.40,471.25 C478.95,474.16 478.94,475.70 478.14,477.43 C474.20,485.99 458.57,511.03 447.39,527.65 C427.67,556.62 376.33,631.73 375.10,633.45 C373.17,636.14 368.93,641.69 368.15,642.70 C373.54,632.74 389.30,608.38 398.85,594.40 C407.77,582.04 426.36,556.88 436.19,544.28 C446.23,531.84 468.62,505.56 478.47,495.06 C483.93,489.46 495.58,477.64 499.72,474.17 C502.07,472.23 505.15,470.82 506.35,470.35 C506.31,473.19 506.12,474.38 505.38,475.78 C497.77,490.87 483.87,515.02 476.73,527.40 C457.80,559.92 432.03,604.14 425.18,615.84 C421.08,622.79 415.11,631.30 411.05,634.80 C410.19,632.97 410.02,631.85 410.53,630.19 C412.22,624.67 417.87,611.31 421.69,603.57 C426.95,593.25 442.11,566.80 450.58,554.07 C454.70,548.05 463.06,536.53 467.21,531.09 C470.43,527.00 481.49,514.07 485.72,510.13 C488.13,507.90 493.99,503.30 496.53,501.86 C499.43,500.26 505.54,498.55 506.80,499.15 C507.96,499.75 510.18,502.18 510.24,503.06 C510.38,507.50 507.06,517.29 506.61,518.30" fill="none" stroke="rgb(191, 161, 74)" stroke-width="10.10" stroke-opacity="1.00" stroke-linejoin="round"/>
<path d="M517.50,358.50 C515.74,358.48 514.35,358.57 513.53,358.99 C510.99,360.29 495.56,377.26 493.22,380.24 C498.44,374.67 512.60,359.83 515.71,357.70 C516.23,357.35 516.86,357.03 517.59,356.76 C517.59,356.76 518.53,357.37 518.53,357.37 C518.53,357.37 507.90,378.60 507.90,378.60 C508.49,378.93 509.11,378.70 510.93,377.34 C514.09,375.02 520.52,370.28 523.79,367.86 C526.96,365.54 529.95,363.73 533.20,363.35 C533.67,365.25 533.73,366.55 533.19,367.97 C532.11,370.82 522.70,388.60 519.01,395.11 C513.67,404.32 510.49,410.68 508.80,415.60 C514.35,412.00 521.23,405.44 529.15,397.38 C535.16,391.25 547.51,378.70 553.84,372.27 C562.47,363.58 563.07,363.15 564.25,362.65 C561.07,369.17 542.72,401.26 534.53,415.58 C529.66,424.32 526.54,431.32 526.15,432.20 C534.48,421.86 548.44,400.70 562.31,381.73 C571.96,368.87 584.71,351.93 585.65,351.20 C579.31,361.04 562.72,387.51 553.44,403.13 C546.18,415.69 530.64,442.85 522.37,457.46 C514.39,471.99 498.31,501.90 490.19,517.28 C482.50,532.52 468.64,560.23 462.47,572.70 C455.94,586.23 445.06,609.30 440.80,620.75 C441.30,620.81 461.24,584.61 469.73,569.31 C477.36,556.18 493.00,530.01 501.02,516.95 C509.80,503.29 527.01,476.90 535.45,464.18 C544.13,451.59 562.43,425.48 572.05,411.96 C581.93,398.22 605.38,365.35 604.10,364.85 C599.08,372.54 584.66,399.86 577.97,412.98 C563.06,442.38 533.62,499.30 519.54,525.05 C503.17,553.60 467.54,612.57 449.32,642.29 C446.26,647.27 439.88,657.67 438.50,660.30 C445.19,647.56 460.18,619.37 468.48,603.93 C476.01,590.67 490.74,565.18 498.65,552.17 C507.09,538.90 525.32,512.22 534.63,498.89 C544.24,485.71 563.89,460.44 573.27,448.98 C583.45,436.94 603.81,413.42 613.99,401.94 C620.59,394.85 624.31,391.82 625.70,390.80 C622.22,398.76 607.48,423.50 600.68,434.53 C583.06,462.66 547.85,519.02 530.26,547.26 C520.25,563.61 502.66,592.76 495.08,605.55 C488.93,616.43 474.57,642.57 466.27,658.73 C455.79,679.84 454.24,683.73 452.70,687.85 C452.83,687.90 470.81,650.60 478.18,637.22 C485.82,623.93 501.79,597.92 509.91,584.99 C518.60,571.95 536.93,546.33 546.18,534.12 C555.87,521.81 576.03,497.85 586.00,486.23 C601.61,468.72 610.90,459.76 611.85,459.35 C603.80,471.71 587.03,497.93 579.22,510.76 C563.44,537.70 533.55,591.42 519.30,618.41 C504.05,649.38 486.33,685.45 483.85,690.55 C481.78,694.61 480.88,695.44 479.80,695.95 C479.57,693.14 480.78,688.24 481.50,685.32 C482.96,679.93 489.17,663.61 491.54,658.08 C497.43,645.08 511.79,618.51 521.19,603.12 C529.40,590.51 548.11,562.52 554.35,553.91 C568.72,534.90 601.23,494.12 601.65,494.20 C593.26,507.43 578.78,532.26 572.18,544.16 C564.42,558.51 548.91,587.67 541.16,602.49 C525.28,634.41 503.46,680.33 499.57,686.66 C498.56,688.35 497.97,688.80 496.95,688.90 C497.25,685.13 501.85,672.75 505.66,664.78 C508.83,658.45 516.45,644.45 520.16,638.18 C528.49,624.77 543.70,601.98 551.39,591.39 C572.80,563.21 598.56,529.32 602.91,523.60 C603.77,522.46 607.74,517.30 607.65,516.30 C602.93,521.30 596.39,531.08 592.42,537.42 C586.58,547.20 570.05,577.70 564.32,588.84 C555.24,607.15 514.53,696.80 511.44,705.33 C509.18,711.78 508.25,717.62 508.10,718.55 C511.38,715.52 516.83,706.21 522.82,695.03 C529.40,682.75 544.23,655.37 552.77,640.31 C561.60,625.30 579.22,596.96 587.69,583.60 C595.90,570.93 604.70,559.29 607.05,557.05 C607.64,557.59 607.65,558.23 606.94,560.14 C604.07,567.97 588.54,598.87 581.09,613.48 C564.03,646.07 527.19,716.02 525.35,719.70 C525.18,719.79 544.64,680.35 551.48,667.34 C558.15,655.24 573.12,629.72 580.83,617.31 C593.00,598.73 598.48,592.18 602.95,587.60 C603.85,588.50 604.01,589.08 603.52,590.44 C601.76,595.81 598.17,606.07 592.56,619.12 C586.45,632.59 573.42,660.82 566.51,675.58 C558.81,691.67 543.43,723.43 542.10,724.90 C543.51,718.96 547.94,707.43 551.13,699.69 C557.37,685.27 571.14,657.22 578.06,644.78 C584.99,632.84 597.52,614.30 600.80,610.80 C603.99,607.50 605.35,607.00 607.15,606.95 C607.65,609.56 607.73,610.75 607.39,612.31 C605.42,621.29 603.01,628.64 599.44,638.54 C587.10,671.28 569.26,718.43 563.75,732.85 C569.75,719.54 582.09,693.12 588.94,680.34 C592.59,673.76 600.92,659.50 604.68,653.88 C609.36,646.94 613.63,642.98 614.25,642.40 C613.60,647.38 610.48,655.77 605.05,668.95 C592.83,698.67 576.58,738.76 572.05,751.15 C574.63,744.06 579.68,730.54 583.23,722.58 C590.36,707.36 600.44,689.98 605.11,683.93 C606.25,682.41 607.15,681.83 609.00,681.20 C609.72,683.13 610.02,684.51 609.84,685.94 C609.44,689.06 598.87,725.50 597.00,731.10 C601.81,720.97 605.10,715.06 607.34,711.88 C608.36,710.45 609.26,709.74 611.00,708.85 C612.38,709.25 613.51,710.37 614.05,712.25 C615.07,715.91 615.00,731.04 615.00,731.15 C615.00,731.15 615.00,730.67 615.00,730.67" fill="none" stroke="rgb(191, 161, 74)" stroke-width="10.10" stroke-opacity="1.00" stroke-linejoin="round"/>
<path d="M300.00,370.50 C300.14,381.09 298.35,411.92 298.84,414.02 C299.19,415.40 300.61,416.52 301.94,416.72 C304.06,416.95 321.11,417.81 328.67,418.20 C338.65,418.50 354.08,418.32 362.63,417.95 C374.05,417.31 382.44,416.15 386.75,415.50 C385.71,415.14 385.03,414.92 384.70,414.85 C383.55,414.59 335.78,418.22 327.82,418.17 C320.62,418.10 309.57,416.30 305.80,415.92 C303.57,415.71 298.14,416.78 297.80,416.70 C297.24,413.10 297.96,409.34 298.15,405.30 C298.25,403.00 298.45,381.29 298.50,373.55 C298.50,372.53 298.50,371.52 298.50,370.50" fill="none" stroke="rgb(59, 47, 47)" stroke-width="10.10" stroke-opacity="1.00" stroke-linejoin="round"/>
<path d="M505.50,486.00 C505.50,486.00 502.93,483.07 502.93,483.07 C502.50,487.65 501.41,519.10 501.15,527.39 C501.10,530.01 501.17,533.19 501.90,533.95 C531.59,533.35 574.23,531.73 578.73,531.37 C583.05,531.01 583.47,530.98 583.50,531.00" fill="none" stroke="rgb(59, 47, 47)" stroke-width="10.10" stroke-opacity="1.00" stroke-linejoin="round"/>
<path d="M541.50,537.00 C542.48,537.17 542.79,537.69 542.77,539.62 C542.78,549.26 542.09,558.87 540.73,569.81 C540.46,571.76 540.55,572.89 541.05,574.90 C542.29,575.54 543.21,575.65 544.85,575.21 C551.55,573.47 568.08,572.91 576.22,572.86 C597.20,573.04 637.71,575.98 638.60,576.00 C619.45,574.86 603.88,574.35 596.01,574.74 C592.36,574.86 581.98,575.11 581.55,575.05 C581.26,575.01 580.96,574.87 580.64,574.64" fill="none" stroke="rgb(59, 47, 47)" stroke-width="10.10" stroke-opacity="1.00" stroke-linejoin="round"/>
<path d="M543.00,537.00 C543.09,535.63 542.69,533.35 541.80,532.53 C540.07,531.00 533.46,531.10 529.33,531.54 C525.31,531.97 520.22,531.89 517.20,531.20 C515.04,530.69 505.34,527.31 504.90,527.10 C503.70,526.49 502.78,525.35 502.50,524.10 C502.11,522.19 498.02,498.53 497.43,493.17 C497.19,490.88 496.72,486.65 496.50,484.71" fill="none" stroke="rgb(59, 47, 47)" stroke-width="10.10" stroke-opacity="1.00" stroke-linejoin="round"/>
<path d="M408.00,623.25 C408.00,623.25 406.50,615.23 406.50,615.23 C410.48,634.68 409.14,647.10 408.85,648.35 C408.85,648.35 408.00,611.05 408.00,611.05 C409.85,627.29 412.49,649.99 412.52,650.39 C412.71,652.67 413.45,654.27 414.75,654.95 C416.43,655.76 434.90,654.67 443.29,654.15 C451.35,653.67 468.49,652.76 475.61,652.53 C483.76,652.42 497.32,653.36 500.10,654.70 C498.51,655.14 491.12,653.95 489.34,653.67 C480.31,652.24 459.54,649.18 454.18,648.71 C445.26,647.93 421.96,649.34 419.45,649.50 C419.45,649.50 425.78,651.00 425.78,651.00" fill="none" stroke="rgb(59, 47, 47)" stroke-width="10.10" stroke-opacity="1.00" stroke-linejoin="round"/>
<path d="M409.50,600.00 C409.50,602.22 409.50,608.15 409.50,611.87 C409.50,621.35 409.50,634.12 409.50,637.41 C409.50,639.35 409.50,642.30 409.50,643.31" fill="none" stroke="rgb(59, 47, 47)" stroke-width="10.10" stroke-opacity="1.00" stroke-linejoin="round"/>
<path d="M318.00,573.00 C318.00,573.00 318.95,573.00 318.95,573.00 C296.33,573.52 285.10,575.42 282.23,575.93 C282.23,575.93 343.25,574.50 343.25,574.50 C325.60,573.96 307.03,572.65 299.50,572.00 C295.15,571.70 288.02,571.51 287.55,571.50 C287.12,571.49 286.29,571.49 285.07,571.50" fill="none" stroke="rgb(59, 47, 47)" stroke-width="10.10" stroke-opacity="1.00" stroke-linejoin="round"/>
<path d="M636.00,720.00 C635.28,720.00 632.61,720.00 627.36,720.30 C610.64,721.25 590.85,725.63 589.80,726.15 C594.59,727.95 605.49,728.39 618.41,727.97 C622.47,727.79 627.81,727.56 629.10,727.50 C617.69,727.58 606.46,727.99 598.40,728.98 C593.58,729.60 588.01,730.43 584.17,731.19 C582.21,731.58 581.49,731.75 580.65,732.00" fill="none" stroke="rgb(59, 47, 47)" stroke-width="10.10" stroke-opacity="1.00" stroke-linejoin="round"/>
<path d="M615.00,404.25 C615.00,404.25 615.00,403.50 615.00,403.50 C614.16,403.26 611.56,402.76 610.31,402.68 C605.17,402.37 570.06,409.07 562.75,409.00 C570.11,409.21 586.10,409.50 593.90,409.40 C606.10,408.99 629.87,406.45 631.00,406.85 C627.72,407.77 622.82,407.67 618.00,407.45 C611.20,407.06 596.03,406.18 587.65,405.69 C575.54,405.05 569.46,405.01 567.39,405.00" fill="none" stroke="rgb(59, 47, 47)" stroke-width="10.10" stroke-opacity="1.00" stroke-linejoin="round"/>
<path d="M624.00,471.00 C616.98,471.00 602.22,471.00 594.48,470.99 C581.81,471.01 576.49,471.21 572.50,472.55 C572.50,472.55 572.45,473.75 572.45,473.75 C576.40,475.39 585.95,475.56 597.40,475.25 C613.51,474.67 630.79,474.04 631.95,474.00 C625.11,474.00 608.79,474.00 599.32,474.00 C595.69,474.00 586.63,474.00 581.20,474.00 C579.89,474.00 577.73,474.00 576.87,474.00" fill="none" stroke="rgb(59, 47, 47)" stroke-width="10.10" stroke-opacity="1.00" stroke-linejoin="round"/>
<path d="M627.00,631.50 C625.14,631.50 622.02,631.50 620.75,631.51 C613.05,631.52 596.37,631.63 589.02,631.81 C580.47,632.11 574.69,633.79 573.75,634.05 C580.71,634.48 596.80,635.35 604.81,635.61 C612.09,635.70 621.63,635.84 625.15,634.95 C625.15,634.95 620.20,634.50 620.20,634.50 C620.32,634.50 620.43,634.50 620.55,634.50 C620.68,634.50 620.80,634.50 620.93,634.50" fill="none" stroke="rgb(59, 47, 47)" stroke-width="10.10" stroke-opacity="1.00" stroke-linejoin="round"/>
<path d="M629.25,717.00 C629.25,717.00 629.85,717.25 629.85,717.25 C630.36,718.15 629.30,719.48 627.08,720.50 C624.58,721.61 610.46,721.46 598.57,720.93 C589.50,720.48 574.07,720.01 571.00,721.50 C570.79,721.61 570.46,721.86 570.00,722.25 C574.03,721.95 588.70,720.32 595.70,719.51 C602.48,718.83 612.12,718.53 613.22,718.50" fill="none" stroke="rgb(59, 47, 47)" stroke-width="10.10" stroke-opacity="1.00" stroke-linejoin="round"/>
<path d="M389.19,523.53 C387.54,524.07 386.54,524.67 385.87,525.73 C384.57,527.82 383.72,533.63 384.43,536.46 C384.87,538.03 386.13,540.12 387.20,540.98 C388.33,541.83 390.77,542.47 392.42,542.33 C395.35,542.02 401.04,539.17 402.91,537.68 C404.95,536.02 408.59,531.43 409.91,527.24 C410.55,525.08 410.65,522.06 410.12,520.20 C409.56,518.40 407.51,515.51 406.02,514.41 C404.54,513.40 401.08,512.52 399.36,512.74 C397.45,513.03 394.66,514.91 393.14,516.70 C392.06,518.04 390.55,522.46 390.51,524.59 C390.51,526.78 391.97,530.93 393.38,532.58 C394.88,534.26 399.19,536.41 401.71,536.71 C404.30,536.97 409.83,535.87 412.51,534.56 C415.16,533.22 419.81,529.31 421.56,526.94 C423.30,524.52 425.18,519.36 425.28,516.67 C425.34,514.02 423.86,509.07 422.38,506.80 C420.89,504.59 416.94,501.11 414.45,499.83 C412.02,498.61 406.46,497.24 403.59,497.10 C401.49,497.01 395.25,497.50 392.53,498.36 C390.02,499.18 383.14,502.37 380.82,504.09 C374.89,508.58 374.37,511.93 374.63,512.98 C376.19,510.82 377.15,506.19 377.12,503.41 C377.05,500.35 375.74,494.44 374.52,492.14 C373.32,489.99 369.96,487.08 368.51,486.53 C367.57,486.19 364.58,485.59 362.46,485.29 C359.53,484.83 357.17,483.92 356.40,482.65 C355.14,480.44 355.95,475.66 356.87,473.00 C360.19,463.52 361.65,456.59 361.42,455.30 C361.07,453.59 359.64,451.71 357.69,450.28 C356.35,449.34 351.91,448.83 345.60,448.72 C341.44,448.69 336.39,449.68 333.62,450.41 C332.79,450.53 331.94,450.20 331.12,450.38 C329.56,450.77 327.55,452.72 326.77,454.65 C324.63,460.22 322.90,475.12 322.76,481.83 C322.72,497.88 321.23,517.35 320.15,524.43 C319.65,527.65 319.53,531.25 320.57,532.89 C321.88,534.82 327.08,537.63 329.83,538.49 C335.08,540.08 347.99,540.99 357.66,540.40 C366.04,539.75 378.39,538.81 380.94,538.84 C382.41,538.86 383.23,539.27 383.96,540.09 C383.73,541.83 380.09,547.76 378.86,550.60 C377.45,553.90 376.03,561.68 375.92,563.80 C375.84,565.95 377.87,582.23 377.30,584.25 C377.06,585.04 374.75,589.33 373.85,591.11 C373.25,592.28 372.37,594.18 371.90,595.25" fill="none" stroke="rgb(191, 161, 74)" stroke-width="61.10" stroke-opacity="1.00" stroke-linejoin="round"/>
<path d="M405.71,568.61 C405.71,568.61 405.95,570.53 405.95,570.53 C412.69,570.60 429.02,570.93 433.90,571.87 C439.70,573.00 452.95,577.15 454.17,576.91 C454.65,576.81 455.19,576.32 455.81,575.44 C455.58,572.67 449.45,558.18 447.84,552.24 C446.86,548.58 445.39,540.66 445.09,537.60 C444.42,530.35 446.19,515.51 447.95,510.18 C448.93,507.28 452.22,500.35 454.23,497.67 C455.32,496.25 456.89,494.83 458.21,494.01 C459.23,493.45 462.59,492.72 463.90,492.96 C465.39,493.28 466.70,495.08 467.19,497.00 C468.54,503.01 469.07,519.58 469.21,526.98 C469.22,546.27 470.28,566.00 472.06,586.19 C472.25,588.29 472.37,590.44 472.27,591.18 C472.12,592.07 470.95,592.99 469.95,593.09 C467.50,593.27 454.70,591.06 453.25,591.59 C451.36,592.37 448.94,597.65 448.26,601.60 C448.01,603.11 447.09,611.00 445.63,613.08 C444.74,614.32 444.21,615.54 443.82,617.07 C443.78,617.61 445.18,618.03 448.16,618.26 C451.39,618.50 472.77,613.53 478.01,612.46 C482.53,611.59 488.76,611.03 492.57,611.38 C500.17,612.16 507.99,614.63 511.95,616.21 C509.89,609.95 505.60,595.76 505.18,588.99 C505.04,586.37 505.20,578.44 505.77,575.75 C506.73,571.34 508.15,568.06 508.64,567.45 C508.64,567.45 512.02,570.45 512.02,570.45 C512.02,570.45 512.26,568.13 512.26,568.13 C512.22,578.37 512.63,588.14 514.12,594.76 C514.86,598.05 517.02,604.94 517.79,606.04 C518.66,607.23 520.80,608.74 521.92,608.97 C522.78,609.12 542.44,603.64 548.29,603.70 C553.87,603.80 568.90,606.52 574.26,607.03 C578.32,607.39 586.34,608.05 590.30,608.37 C594.41,608.68 597.58,608.56 601.17,607.64 C603.22,607.10 604.07,607.03 604.64,607.27 C605.36,608.14 605.11,612.19 604.50,615.34 C602.57,625.28 601.56,636.40 601.45,647.79 C601.42,661.73 601.37,682.60 601.19,682.81 C600.76,683.25 586.29,683.44 575.50,684.33 C563.68,685.37 556.66,685.46 554.23,684.62 C553.25,684.26 549.77,682.86 549.18,682.54 C548.15,681.92 546.81,680.23 546.65,679.05 C546.33,676.37 549.37,660.73 551.74,651.69 C552.79,647.81 554.61,644.29 556.63,642.80 C558.48,641.52 562.92,641.50 564.81,642.18 C566.68,642.88 570.90,646.05 571.99,646.88 C572.48,646.68 569.22,644.10 565.84,642.13 C563.46,640.82 557.85,639.95 552.82,639.74 C544.54,639.45 533.92,640.98 531.21,641.23 C529.38,641.39 528.29,640.02 528.14,639.74 C527.40,640.26 527.02,641.00 527.19,642.19 C527.20,642.25 533.55,659.96 535.07,666.35 C535.73,669.25 535.01,675.48 534.12,678.54 C533.80,679.59 532.17,683.12 531.78,684.06 C531.04,685.75 529.38,687.49 527.56,688.44 C525.50,689.46 519.21,689.36 513.57,688.23 C510.49,687.61 505.83,687.25 503.70,686.53 C503.39,686.43 502.79,686.21 501.88,685.88 C509.33,691.93 516.73,696.38 523.55,698.74 C530.28,701.08 535.93,704.71 536.85,705.42 C537.24,705.72 538.23,706.51 539.82,707.77" fill="none" stroke="rgb(191, 161, 74)" stroke-width="61.10" stroke-opacity="1.00" stroke-linejoin="round"/>
<path d="M536.85,493.82 C537.02,486.82 535.72,474.03 536.54,468.07 C536.71,466.92 537.04,461.85 537.26,461.14 C537.52,460.27 542.27,453.07 542.59,450.93 C542.87,448.66 540.77,443.74 540.37,442.80 C538.14,436.66 533.25,424.19 530.11,418.14 C527.48,413.12 517.30,398.30 515.05,394.23 C513.23,390.89 511.49,384.82 511.27,383.07 C511.14,381.67 512.25,381.13 514.96,381.12 C529.82,381.12 567.04,381.06 572.34,381.40 C574.15,381.52 578.24,382.26 581.38,381.59 C584.76,380.83 591.74,379.26 593.48,379.08 C593.73,379.06 601.41,379.14 603.61,378.70 C604.09,378.60 604.72,378.38 605.49,378.05" fill="none" stroke="rgb(191, 161, 74)" stroke-width="61.10" stroke-opacity="1.00" stroke-linejoin="round"/>
<path d="M546.07,438.49 C550.46,439.07 553.71,439.37 558.26,439.52 C562.71,439.65 578.79,437.41 584.42,437.48 C588.23,437.54 604.63,436.33 606.41,436.96 C606.64,437.04 607.02,437.22 607.54,437.47" fill="none" stroke="rgb(191, 161, 74)" stroke-width="61.10" stroke-opacity="1.00" stroke-linejoin="round"/>
<path d="M321.70,386.24 C322.82,386.24 328.04,386.27 333.16,386.88 C336.65,387.35 344.67,388.73 346.41,388.92 C352.27,389.55 369.36,388.65 373.42,387.65 C378.91,386.30 390.24,386.07 393.62,385.46 C394.04,385.38 394.56,385.30 395.19,385.22" fill="none" stroke="rgb(191, 161, 74)" stroke-width="61.10" stroke-opacity="1.00" stroke-linejoin="round"/>
<path d="M301.21,196.20 C301.21,196.20 302.74,185.89 302.74,185.89 C303.68,189.58 303.83,196.38 303.70,200.40 C303.34,207.48 302.55,225.49 302.62,228.43 C302.78,233.92 305.82,253.25 307.26,261.64 C308.31,267.19 309.36,270.32 312.31,271.67 C315.52,273.07 333.05,274.57 340.82,274.33 C356.73,273.55 397.16,271.71 400.35,270.85 C401.94,270.41 404.42,269.37 405.78,268.66" fill="none" stroke="rgb(191, 161, 74)" stroke-width="61.10" stroke-opacity="1.00" stroke-linejoin="round"/>
<path d="M329.38,236.66 C330.24,236.66 332.23,236.67 333.35,236.68 C338.41,236.72 377.77,236.04 389.90,236.38 C403.91,236.95 432.87,237.61 447.82,237.71 C481.33,237.70 555.28,237.80 558.96,237.99 C560.52,238.07 561.93,238.84 564.27,240.63" fill="none" stroke="rgb(191, 161, 74)" stroke-width="61.10" stroke-opacity="1.00" stroke-linejoin="round"/>
<path d="M519.43,271.50 C518.96,272.82 518.85,273.61 519.11,273.85 C519.58,274.27 570.85,269.32 579.54,268.86 C593.48,268.41 596.62,268.41 596.89,267.57 C597.19,266.42 596.08,258.18 595.52,254.15 C594.27,246.39 592.27,238.76 588.99,228.09 C580.64,201.99 578.60,193.08 578.36,187.83 C578.26,185.16 579.82,181.71 581.07,180.79 C581.62,181.38 587.98,196.23 589.37,202.89 C590.61,208.98 591.95,222.93 591.79,231.00 C591.73,233.90 591.30,243.35 591.15,246.51" fill="none" stroke="rgb(191, 161, 74)" stroke-width="61.10" stroke-opacity="1.00" stroke-linejoin="round"/>
<path d="M423.13,192.10 C423.13,192.10 424.08,181.62 424.08,181.62 C424.08,181.62 424.97,217.85 424.97,217.85 C423.63,210.19 421.56,198.51 420.83,194.49 C420.43,192.17 420.09,190.81 419.27,188.14" fill="none" stroke="rgb(191, 161, 74)" stroke-width="61.10" stroke-opacity="1.00" stroke-linejoin="round"/>
<path d="M324.77,230.52 C323.23,229.22 322.49,228.38 322.54,227.99 C322.78,226.39 339.98,223.66 349.85,222.82 C364.53,221.97 394.30,220.45 409.24,220.52 C424.46,220.89 455.40,222.36 470.89,223.18 C485.90,223.69 511.99,223.82 531.68,222.78 C539.78,222.20 555.71,221.07 563.54,220.53 C575.04,219.94 584.35,220.05 590.36,220.72 C593.62,221.08 598.49,221.90 599.80,222.11" fill="none" stroke="rgb(191, 161, 74)" stroke-width="61.10" stroke-opacity="1.00" stroke-linejoin="round"/>
<path d="M395.46,300.18 C395.46,300.18 396.49,299.42 396.49,299.42 C396.23,302.41 395.53,309.90 395.47,311.23 C395.31,314.56 395.63,321.44 396.03,324.37 C396.43,327.26 398.16,333.03 399.15,335.36 C400.91,339.41 403.71,343.96 406.36,347.38 C408.57,350.16 417.95,355.67 419.13,356.36 C417.42,355.10 413.48,351.68 411.21,349.37 C406.98,345.02 399.69,332.24 397.27,325.75 C395.97,322.21 395.46,317.62 395.40,313.28 C395.36,307.61 395.69,301.59 396.27,298.73 C396.92,295.64 399.38,289.61 400.90,286.74 C402.55,283.67 407.19,277.58 409.47,275.22 C412.04,272.58 417.83,268.54 420.46,267.26 C422.94,266.08 431.05,263.45 433.20,263.02 C438.25,262.04 457.17,261.06 461.65,262.26 C464.27,263.00 470.14,265.93 473.91,268.33 C477.89,270.93 480.75,273.67 482.85,276.75 C488.06,284.50 490.81,291.72 494.06,302.52 C495.79,308.58 497.24,324.99 496.13,328.98 C495.43,331.37 492.37,337.17 490.95,339.29 C487.82,343.87 477.89,352.03 476.44,353.84 C476.20,354.14 475.90,354.58 475.55,355.17" fill="none" stroke="rgb(248, 245, 225)" stroke-width="9.90" stroke-opacity="1.00" stroke-linejoin="round"/>
<path d="M422.10,364.22 C422.00,364.09 422.00,363.92 422.10,363.70 C422.20,363.49 422.54,362.93 423.13,362.02 C421.86,365.20 413.29,380.17 411.72,384.19 C410.62,387.06 406.03,401.77 402.18,412.07 C399.37,419.13 392.94,435.41 392.00,438.87 C390.89,443.07 390.21,455.84 390.62,457.00 C391.10,458.32 393.21,459.79 394.67,460.21 C397.56,460.98 401.41,461.81 402.55,462.06" fill="none" stroke="rgb(248, 245, 225)" stroke-width="9.90" stroke-opacity="1.00" stroke-linejoin="round"/>
<path d="M477.94,356.53 C477.94,356.53 477.11,355.57 477.11,355.57 C477.11,355.57 476.40,354.61 476.40,354.61 C477.51,361.10 480.25,369.91 484.09,380.63 C490.23,396.86 502.38,423.01 507.41,437.51 C510.60,446.66 511.73,448.72 511.88,448.71" fill="none" stroke="rgb(248, 245, 225)" stroke-width="9.90" stroke-opacity="1.00" stroke-linejoin="round"/>
<path d="M392.39,463.08 C392.33,462.22 392.44,462.02 393.12,462.20 C396.78,463.18 410.21,464.22 417.96,463.47 C434.61,461.78 458.35,459.40 479.30,457.98 C481.38,457.89 500.64,459.47 505.33,458.40 C506.92,458.01 508.95,456.98 509.77,456.12 C510.21,455.62 511.89,453.11 512.09,452.60 C512.77,450.54 511.06,448.40 508.81,446.28 C508.39,445.89 507.87,445.38 507.24,444.74" fill="none" stroke="rgb(248, 245, 225)" stroke-width="9.90" stroke-opacity="1.00" stroke-linejoin="round"/>
<path d="M426.45,289.26 C424.49,289.76 423.39,290.23 421.75,291.39 C418.36,293.82 414.27,298.66 411.78,302.81 C410.88,304.38 409.37,306.98 408.77,308.01 C408.19,306.94 409.11,297.89 409.48,296.20 C410.31,292.43 413.25,287.30 415.19,284.65 C419.72,278.59 426.24,275.03 428.15,274.05 C425.54,276.03 418.98,281.07 416.42,283.53 C413.50,286.36 409.67,291.65 408.54,294.77 C407.53,297.66 406.47,307.53 406.12,307.82 C405.40,303.84 405.13,299.64 405.79,296.64 C406.54,293.36 409.42,286.96 411.35,284.68 C413.04,282.73 419.07,278.38 422.31,277.19 C430.44,274.30 436.87,274.86 438.18,275.15 C438.18,275.15 431.90,276.69 431.90,276.69 C432.85,277.90 442.65,285.35 451.31,293.26 C454.39,296.08 460.47,301.66 463.47,304.42 C466.29,307.06 468.32,310.26 468.48,313.16 C468.64,317.58 464.57,331.32 461.55,337.21 C459.77,340.65 456.40,345.93 454.51,348.24 C452.75,350.37 448.80,353.55 447.16,354.77 C447.16,354.77 460.77,350.47 460.77,350.47" fill="none" stroke="rgb(0, 0, 0)" stroke-width="12.60" stroke-opacity="1.00" stroke-linejoin="round"/>
<path d="M447.93,371.07 C448.34,373.04 449.06,374.83 449.59,375.10 C449.64,375.13 449.64,374.91 449.59,374.44 C449.57,374.28 449.57,374.08 449.59,373.85" fill="none" stroke="rgb(0, 0, 0)" stroke-width="12.60" stroke-opacity="1.00" stroke-linejoin="round"/>
<path d="M290.91,314.05 C290.87,312.46 290.76,308.08 290.65,307.56 C290.59,307.22 290.40,306.96 290.10,306.78 C290.10,306.78 292.29,342.15 292.29,342.15 C292.29,342.15 290.91,314.21 290.91,314.21 C290.14,317.89 289.77,337.04 291.02,341.60 C291.70,343.91 293.86,346.15 295.92,346.78 C298.33,347.44 394.12,343.79 394.55,343.75 C395.21,340.52 394.53,334.81 393.63,330.85 C391.78,323.10 388.80,310.73 387.53,308.98 C386.32,307.42 382.01,307.30 374.16,307.44 C359.01,307.46 325.12,307.36 311.20,307.05 C307.04,306.96 303.09,306.05 298.02,304.30 C298.02,304.30 312.01,302.26 312.01,302.26 C311.05,303.90 305.47,307.12 302.23,309.00 C299.00,310.87 296.42,312.70 295.81,313.22 C297.41,313.62 303.95,311.89 307.72,310.92 C322.20,307.07 323.20,306.90 324.57,306.83 C324.57,306.83 303.47,319.72 303.47,319.72 C306.65,319.52 327.00,313.59 329.98,313.17 C330.46,313.10 331.05,313.07 331.74,313.06 C328.68,315.67 321.69,318.77 319.92,319.56 C313.27,322.45 301.78,327.35 300.44,327.88 C309.79,324.28 355.07,310.37 360.20,309.39 C364.29,308.62 366.00,308.81 366.78,309.20 C362.58,311.91 347.24,318.48 339.54,321.73 C324.46,328.15 304.83,336.97 301.38,338.57 C305.21,337.92 347.28,324.36 360.97,320.60 C372.96,317.48 374.00,317.32 375.98,317.19 C374.54,318.69 369.69,321.20 363.97,323.66 C355.50,327.16 344.28,331.77 341.54,332.89 C348.13,331.24 365.04,326.64 367.22,326.17 C370.00,325.58 376.02,324.90 377.52,325.62 C377.26,326.93 372.65,330.66 369.48,332.79 C367.41,334.17 366.52,334.97 365.62,336.14 C365.62,336.14 381.21,333.33 381.21,333.33 C381.27,333.94 380.48,334.50 378.03,335.47 C375.58,336.43 374.75,336.73 374.71,336.69 C375.26,336.32 375.63,336.08 375.81,335.98 C375.99,335.88 376.24,335.78 376.56,335.68" fill="none" stroke="rgb(0, 0, 0)" stroke-width="12.60" stroke-opacity="1.00" stroke-linejoin="round"/>
<path d="M512.40,317.36 C512.51,314.57 512.71,309.81 512.40,309.10 C512.17,308.61 511.46,307.56 510.26,305.97 C509.12,308.57 509.15,315.81 508.91,318.78 C508.40,324.39 503.23,333.30 502.53,334.49 C503.92,333.45 507.07,329.27 508.95,325.69 C511.96,319.87 512.73,309.00 513.39,308.54 C514.95,307.52 532.76,308.42 539.65,308.78 C546.56,309.10 565.18,308.80 573.83,308.41 C582.82,307.80 604.86,306.04 605.22,305.99 C607.22,305.72 608.14,306.27 608.26,307.93 C608.40,310.75 606.04,324.22 605.39,329.20 C605.13,330.90 604.34,332.04 602.98,332.59 C600.50,333.53 585.85,336.75 577.48,337.78 C569.06,338.68 552.94,338.82 545.30,338.68 C536.46,338.37 514.42,337.44 514.13,337.43 C512.11,337.38 511.57,337.18 511.35,336.53 C519.87,335.17 555.36,332.18 570.52,330.96 C574.77,330.58 579.55,330.05 582.42,328.87 C578.83,327.46 564.93,325.97 556.75,325.27 C543.68,324.41 520.99,323.96 518.46,323.91 C518.46,323.91 572.56,320.00 572.56,320.00 C569.43,318.58 563.13,317.78 559.45,317.29 C551.16,316.30 533.08,314.33 527.77,313.88 C527.77,313.88 585.51,311.46 585.51,311.46 C565.09,310.62 550.91,311.40 543.86,311.93 C539.21,312.39 536.41,313.00 534.60,313.88 C540.06,315.19 547.40,315.77 559.69,315.48 C564.30,315.32 573.33,315.01 577.75,314.87 C583.68,314.74 584.44,314.90 586.23,315.70 C586.23,315.70 583.91,321.98 583.91,321.98 C583.91,321.98 589.59,319.50 589.59,319.50 C590.15,320.13 589.93,322.26 589.97,323.09 C589.99,323.48 590.18,324.05 590.52,324.79 C590.52,324.79 597.80,315.48 597.80,315.48 C597.80,315.48 600.83,323.09 600.83,323.09 C601.86,322.91 602.45,322.26 602.94,320.47 C603.44,318.67 603.72,317.80 604.02,317.08 C604.02,317.08 604.96,317.36 604.96,317.36" fill="none" stroke="rgb(0, 0, 0)" stroke-width="12.60" stroke-opacity="1.00" stroke-linejoin="round"/>
<path d="M619.83,166.94 C619.83,166.94 619.83,164.24 619.83,164.24 C621.41,179.02 623.49,207.27 624.58,223.72 C625.43,238.85 626.52,258.74 626.45,267.55 C626.42,252.92 626.01,219.37 625.35,209.10 C624.69,201.36 623.16,184.98 622.28,176.36 C621.58,169.52 620.48,159.22 619.56,157.70 C618.85,156.64 617.41,155.85 615.67,155.63 C612.99,155.33 594.27,155.77 586.04,156.02 C565.14,157.04 552.78,160.30 552.01,160.99 C550.82,162.14 549.37,164.73 549.19,166.35 C548.72,171.25 548.73,187.44 548.76,192.73 C548.76,194.57 548.76,196.79 548.76,196.69" fill="none" stroke="rgb(0, 0, 0)" stroke-width="12.60" stroke-opacity="1.00" stroke-linejoin="round"/>
<path d="M555.37,198.35 C541.82,198.35 510.46,198.70 492.93,199.98 C483.99,200.82 468.92,202.44 462.47,203.11 C459.72,203.41 457.22,202.91 456.20,202.59 C456.20,202.59 456.20,201.65 456.20,201.65" fill="none" stroke="rgb(0, 0, 0)" stroke-width="12.60" stroke-opacity="1.00" stroke-linejoin="round"/>
<path d="M455.37,165.29 C455.37,165.29 457.85,162.25 457.85,162.25 C457.85,162.25 456.20,198.65 456.20,198.65 C456.40,182.94 454.55,165.97 453.72,163.06 C453.21,161.41 451.68,159.57 450.25,158.79 C447.09,157.19 429.95,156.16 422.46,156.30 C417.06,156.42 395.75,158.52 395.74,158.52 C394.03,158.57 392.27,159.35 391.74,160.50 C391.65,160.70 391.65,191.29 391.71,192.23 C391.77,194.00 391.31,195.91 390.47,196.53 C390.32,196.63 352.66,199.04 344.57,199.54 C340.83,199.80 338.07,199.92 335.98,200.00 C335.84,200.00 335.74,200.00 335.68,200.00" fill="none" stroke="rgb(0, 0, 0)" stroke-width="12.60" stroke-opacity="1.00" stroke-linejoin="round"/>
<path d="M292.56,365.29 C292.56,365.29 292.56,360.41 292.56,360.41 C292.46,368.84 291.56,385.96 291.56,389.45 C291.58,397.72 294.83,423.12 294.93,423.53 C295.52,425.67 296.48,426.90 297.80,427.08 C305.37,428.18 329.44,428.11 332.51,428.10 C321.25,428.10 309.99,428.68 305.56,429.92 C304.00,430.37 301.57,431.42 300.03,432.31 C298.80,433.08 296.91,434.94 296.53,436.21 C295.71,439.06 297.51,476.29 297.52,476.42 C297.52,476.42 298.90,443.91 298.90,443.91 C298.99,475.79 299.23,555.79 298.90,556.42 C298.12,557.84 293.33,559.34 293.17,560.00 C294.03,560.70 295.85,561.46 297.36,561.54 C298.95,561.62 307.38,559.32 311.03,557.73 C313.48,556.69 315.22,556.71 317.30,557.69 C317.67,557.87 318.23,558.20 318.97,558.68" fill="none" stroke="rgb(191, 161, 74)" stroke-width="12.60" stroke-opacity="1.00" stroke-linejoin="round"/>
<path d="M335.54,586.78 C333.75,586.76 332.67,586.79 330.36,586.89 C313.23,587.60 292.34,588.47 289.07,588.43 C289.07,588.43 350.03,581.10 350.03,581.10 C346.94,580.72 344.05,580.95 338.49,581.89 C330.10,583.40 313.24,586.46 304.78,588.00 C295.88,589.57 287.41,589.95 285.40,590.08 C285.40,590.08 329.48,590.08 329.48,590.08 C329.38,590.10 323.07,590.82 319.22,591.31 C315.26,591.85 311.20,593.32 310.08,593.94 C310.08,593.94 309.64,597.13 309.64,597.13 C311.88,599.07 316.45,601.21 321.88,603.08 C341.86,609.50 355.04,612.62 357.13,613.11 C353.69,610.90 320.79,598.50 316.89,597.60 C314.30,597.04 309.89,597.31 308.21,597.58 C308.47,600.01 310.98,603.83 314.25,606.84 C317.48,609.76 332.89,622.08 338.29,625.80 C344.74,630.23 360.93,640.05 364.35,641.43 C366.30,642.21 368.79,642.88 370.03,643.03 C366.87,639.32 359.94,634.52 349.17,628.76 C325.50,616.62 320.72,614.59 317.47,613.33 C320.04,615.56 326.44,618.56 329.00,619.68 C333.38,621.59 349.93,627.89 356.95,630.35 C366.67,633.58 376.90,636.15 383.79,636.04 C385.50,636.06 386.39,635.50 387.82,633.77 C386.81,630.95 386.06,629.38 385.03,628.41 C381.79,625.38 367.74,615.91 360.55,612.16 C352.53,608.02 339.70,604.20 338.56,603.89 C336.53,603.38 333.21,603.30 332.07,603.97 C331.64,604.22 331.29,604.89 331.02,605.95 C332.62,608.55 333.54,609.96 334.29,610.56 C336.43,612.26 345.04,616.74 347.91,618.12 C351.92,620.03 356.40,621.49 359.45,621.98 C361.86,622.35 367.90,622.74 371.24,622.08 C374.64,621.37 379.96,617.94 381.80,615.33 C383.76,612.46 384.95,608.19 384.92,604.13 C384.87,601.66 384.61,598.01 384.24,596.80 C383.68,595.00 382.24,592.57 381.21,591.35 C381.21,591.35 379.94,591.46 379.94,591.46 C379.31,593.51 381.07,596.35 383.64,598.90 C385.35,600.52 390.02,602.49 394.25,603.67 C398.26,604.75 405.33,605.37 409.40,605.01 C416.92,604.28 424.17,601.42 425.12,601.05 C418.99,603.37 407.78,610.41 402.20,614.82 C395.72,619.98 385.19,630.61 380.85,637.09 C379.80,638.63 379.51,639.62 379.39,641.54 C380.88,641.82 381.96,641.60 383.99,640.40 C390.75,636.39 402.63,626.06 407.79,620.70 C414.04,614.17 418.87,607.24 421.28,602.49 C422.32,600.38 422.98,597.58 422.59,596.31 C422.44,595.87 421.97,595.30 421.16,594.60 C419.11,594.64 417.95,594.99 416.36,596.26 C412.89,599.04 408.76,603.77 406.27,607.51 C402.03,613.96 394.37,629.80 392.73,635.21 C392.73,635.21 410.03,602.59 410.03,602.59 C401.84,616.63 389.68,637.25 385.70,643.82 C383.76,647.11 380.95,648.90 379.94,649.04 C379.94,649.04 370.96,642.20 370.96,642.20 C372.45,644.12 374.48,645.64 378.11,647.66 C387.75,652.80 423.80,666.50 439.52,672.32 C445.97,674.84 462.36,681.37 467.39,684.55 C469.39,685.90 472.84,688.21 473.33,689.31 C470.95,689.07 469.27,688.36 464.82,685.85 C450.42,677.48 413.72,656.56 404.53,652.07 C400.92,650.30 387.36,644.37 384.85,643.91 C384.57,644.59 384.90,645.20 386.54,646.56 C391.62,650.78 400.46,656.73 410.03,661.82 C424.17,668.92 461.09,686.74 470.47,690.29 C471.44,690.65 487.08,696.21 489.75,697.52 C477.64,689.95 450.78,673.39 436.03,664.41 C421.73,656.19 404.35,647.42 402.09,646.28 C415.87,649.95 448.59,658.01 460.22,660.28 C464.44,661.00 472.60,662.30 476.54,662.88 C481.68,663.53 487.57,663.84 488.82,663.14 C489.18,662.93 489.90,662.32 490.96,661.32 C489.13,658.91 487.83,657.54 486.32,656.75 C483.02,655.03 465.57,648.82 458.18,646.98 C450.60,645.11 435.56,642.66 428.57,642.55 C426.39,642.52 418.41,642.76 416.00,643.46 C414.62,643.87 414.10,644.64 413.88,646.06 C416.55,647.61 426.05,649.93 439.01,651.76 C455.70,653.74 492.56,658.27 501.60,660.44 C497.95,659.98 479.98,655.14 471.57,652.86 C459.63,649.86 452.02,649.10 450.19,650.08 C449.24,650.63 448.14,652.11 447.66,653.17 C448.69,656.14 450.93,658.79 454.38,661.10" fill="none" stroke="rgb(191, 161, 74)" stroke-width="12.60" stroke-opacity="1.00" stroke-linejoin="round"/>
<path d="M595.04,555.37 C595.04,555.37 596.58,555.37 596.58,555.37 C588.62,555.82 549.23,560.84 536.64,562.98 C525.62,564.97 524.76,565.22 523.24,565.81 C523.91,566.81 563.25,564.65 581.68,563.60 C596.76,562.82 618.11,561.82 626.54,562.18 C627.97,562.25 629.05,562.54 631.35,563.42 C628.18,563.29 623.07,561.56 617.62,558.62 C615.44,557.42 613.68,556.34 612.04,555.20 C611.24,554.62 609.71,552.09 609.53,550.96 C609.39,550.09 609.69,546.80 608.87,545.84 C607.41,544.23 591.03,543.39 580.28,543.30 C547.43,543.75 510.25,545.27 506.56,545.45 C506.56,545.45 614.10,540.50 614.10,540.50 C586.29,540.74 541.36,541.55 524.25,542.12 C517.72,542.38 507.35,542.73 503.50,542.64 C501.60,542.59 501.03,542.48 500.83,542.20" fill="none" stroke="rgb(191, 161, 74)" stroke-width="12.60" stroke-opacity="1.00" stroke-linejoin="round"/>
<path d="M519.83,515.70 C519.83,515.70 519.01,515.70 519.01,515.70 C519.49,515.12 519.85,514.71 520.10,514.49 C520.40,514.21 528.12,508.49 529.28,507.13 C529.82,506.45 530.39,504.56 530.41,503.58 C530.38,501.46 527.01,497.39 524.42,495.42 C522.95,494.33 520.62,493.06 519.17,492.61 C517.59,492.15 515.75,492.33 514.68,493.04 C514.16,493.43 512.32,495.44 512.07,496.16 C511.27,498.62 510.78,512.77 510.74,514.10 C510.74,514.10 511.02,486.45 511.02,486.45 C511.70,487.39 513.20,506.63 513.77,514.87 C513.92,516.98 514.49,520.33 515.09,521.29 C515.74,522.25 518.16,523.24 519.76,523.54 C526.31,524.56 543.96,525.54 547.51,525.49 C558.42,525.31 606.84,519.00 607.55,519.17 C593.58,520.72 562.08,523.74 544.70,524.84 C533.63,525.43 529.00,525.45 524.35,525.34 C529.56,524.28 567.52,522.33 585.41,521.65 C600.94,521.19 618.95,520.70 619.78,520.22 C619.78,520.22 620.50,506.39 620.50,506.39 C621.70,508.69 622.30,513.61 622.28,519.50 C622.14,529.12 621.16,540.48 620.00,545.84 C619.56,530.57 618.33,488.75 618.46,487.99 C618.68,486.73 619.48,483.59 619.45,483.20 C619.45,483.20 546.01,482.64 546.01,482.64 C561.78,482.10 594.00,480.76 610.44,479.96 C620.42,479.55 622.85,480.67 623.20,481.32 C620.78,482.76 618.00,483.76 613.86,484.80 C593.36,489.51 543.62,499.21 538.07,500.28 C547.87,499.02 584.17,496.79 600.93,495.97 C607.31,495.80 614.50,496.42 619.94,497.25 C617.57,498.66 616.40,499.19 614.82,499.46 C606.30,501.07 543.17,505.26 533.55,505.73 C533.55,505.73 610.03,510.74 610.03,510.74 C610.03,510.74 530.52,515.32 530.52,515.32 C545.43,514.86 578.14,514.08 597.07,514.13 C605.11,514.37 616.82,514.75 620.50,514.88 C620.50,514.88 611.76,507.63 611.76,507.63" fill="none" stroke="rgb(191, 161, 74)" stroke-width="12.60" stroke-opacity="1.00" stroke-linejoin="round"/>
<path d="M613.22,459.50 C613.22,459.50 614.58,459.32 614.58,459.32 C614.58,459.32 614.75,457.66 614.75,457.66 C613.05,456.73 612.07,456.42 610.27,456.37 C600.02,456.12 588.85,456.80 578.08,458.19 C572.21,459.01 568.35,459.85 565.69,460.90 C567.04,461.92 567.91,462.31 569.35,462.43 C574.35,462.80 622.76,461.12 627.99,459.94 C628.31,459.87 628.66,459.73 629.04,459.50 C629.04,459.50 607.33,462.81 607.33,462.81 C606.82,461.28 606.84,460.31 607.59,458.68 C610.78,451.66 613.32,441.46 615.43,430.80 C616.19,433.62 618.03,440.25 619.10,444.05 C619.67,446.17 620.32,447.33 621.93,449.37 C623.26,447.76 623.75,446.55 623.93,443.92 C624.26,439.47 624.70,433.57 624.79,432.12 C624.79,432.12 624.79,450.14 624.79,450.14 C624.91,441.60 624.45,432.93 624.21,429.67 C624.08,427.81 623.41,424.67 623.14,423.42 C623.12,423.33 623.10,423.06 623.14,423.14" fill="none" stroke="rgb(191, 161, 74)" stroke-width="12.60" stroke-opacity="1.00" stroke-linejoin="round"/>
<path d="M631.40,398.35 C629.26,398.36 626.83,398.31 625.23,398.27 C622.91,398.24 619.92,398.46 617.59,398.81 C615.34,399.17 614.46,399.56 614.40,400.07 C615.90,399.10 618.94,393.57 619.56,391.84 C621.44,386.54 622.88,372.47 623.20,369.42 C624.01,372.09 625.95,378.43 627.08,382.11 C628.35,386.13 630.06,390.39 632.12,392.40 C632.42,388.61 631.41,382.04 630.82,378.12 C629.91,372.59 628.48,365.45 627.49,363.69 C626.94,362.72 625.82,361.26 625.01,360.33 C623.13,360.33 622.20,360.84 620.47,362.99 C619.02,364.71 617.08,365.54 615.32,365.06 C615.23,365.04 607.22,362.17 604.68,361.54 C599.98,360.40 584.40,358.18 578.96,358.04 C571.29,357.85 528.28,359.25 521.32,359.83 C534.53,359.02 568.70,359.71 585.80,360.20 C594.08,360.64 607.73,361.35 611.46,361.05 C609.96,359.76 602.57,358.00 601.25,357.72 C595.54,356.56 578.39,354.99 570.52,354.52 C562.53,354.23 546.29,354.23 538.05,354.49 C530.87,354.88 515.81,355.85 506.77,357.10 C502.13,357.97 494.55,359.28 491.34,360.76 C489.27,361.73 488.56,362.59 488.60,363.69 C489.85,364.56 491.52,365.02 493.74,364.85 C497.75,364.51 503.35,361.79 506.23,360.33 C508.91,359.07 514.99,356.83 519.72,355.92 C525.28,354.89 566.55,352.25 582.18,351.43 C590.35,351.20 607.66,350.88 612.26,351.03 C616.06,351.17 622.81,352.74 624.08,353.66 C624.49,353.98 624.79,354.89 624.79,355.21" fill="none" stroke="rgb(191, 161, 74)" stroke-width="12.60" stroke-opacity="1.00" stroke-linejoin="round"/>
<path d="M613.22,735.54 C612.90,734.71 612.56,734.27 611.03,732.89 C608.23,730.41 602.62,728.93 597.05,728.13 C585.87,726.74 555.95,724.04 553.33,724.30 C556.33,725.58 568.50,726.99 581.91,727.66 C598.33,728.21 630.73,729.24 632.29,729.75 C630.90,731.33 625.98,733.67 623.13,735.05 C610.28,741.14 579.39,758.97 576.64,760.33 C578.24,758.99 583.09,756.01 589.02,752.65 C592.97,750.44 599.70,746.68 599.67,746.01 C596.12,746.53 586.20,747.97 584.74,748.15 C582.03,748.47 580.01,748.21 577.41,747.27 C561.78,741.41 545.63,732.62 539.67,729.31 C534.70,726.66 533.37,726.51 532.07,726.72 C534.03,728.92 548.40,740.17 550.91,741.98 C556.99,746.05 565.89,752.10 567.71,752.34 C567.71,752.34 560.66,741.38 560.66,741.38 C561.92,739.16 562.81,738.42 564.79,738.29 C577.54,737.12 601.03,736.77 602.20,736.31 C598.69,735.35 592.14,734.99 588.26,734.76 C583.91,734.56 575.50,734.35 572.72,734.69 C570.26,735.01 568.63,735.94 567.82,736.64 C570.07,737.88 573.08,738.50 578.48,738.89 C586.68,739.32 601.90,739.75 609.37,738.84 C606.48,739.05 600.06,739.54 596.34,740.06 C595.09,740.25 593.51,740.49 593.39,740.50" fill="none" stroke="rgb(191, 161, 74)" stroke-width="12.60" stroke-opacity="1.00" stroke-linejoin="round"/>
</g>
</svg>
